<svg width="71" height="77" viewBox="0 0 71 77" fill="none" xmlns="http://www.w3.org/2000/svg">
<g clip-path="url(#clip0_281_6699)">
<path d="M58.3506 34.4577C59.3499 35.0422 60.3067 35.5408 61.204 36.1368C63.7602 37.8331 65.453 40.2056 66.3956 43.134C67.7063 47.2086 67.6072 51.2918 66.4324 55.3721C65.5181 58.5469 64.114 61.4438 61.7277 63.7877C58.529 66.9282 54.6989 68.8394 50.3905 69.8337C49.2922 70.0887 48.1797 70.2807 47.07 70.4813C46.2661 70.6245 46.1953 70.507 46.3256 69.6818C46.9908 65.4812 43.9845 62.3321 40.0583 62.5728C35.8829 62.8278 31.968 66.3723 30.9517 70.1202C30.7847 70.7334 30.5243 70.9598 29.8845 70.9483C27.317 70.9111 24.7524 70.9139 22.1849 70.9369C21.5678 70.9426 21.3781 70.8337 21.5083 70.1317C21.9159 67.9454 21.6385 65.9081 19.9797 64.249C18.6096 62.8765 16.9055 62.3063 15.0683 62.5814C10.5788 63.2519 7.63761 65.8938 6.1826 70.2291C6.01275 70.7363 5.80611 70.9856 5.25128 70.9483C4.22088 70.8767 3.1735 70.954 2.15726 70.7993C0.58053 70.5586 -0.192266 69.444 0.0426866 67.8222C0.31727 65.9138 0.659792 64.0169 0.99099 62.1172C1.43259 59.5842 1.894 57.0569 2.3356 54.5239C2.87627 51.4293 3.39996 48.329 3.94064 45.2315C4.56907 41.6183 5.20882 38.0079 5.84008 34.3946C6.62137 29.916 7.40549 25.4346 8.17828 20.9531C8.93126 16.592 9.67009 12.228 10.4174 7.8669C10.7061 6.17632 10.9864 4.48575 11.3006 2.79804C11.561 1.38254 12.6112 0.531519 14.1285 0.520058C16.6932 0.5 19.2607 0.5 21.8282 0.5C31.6481 0.514327 41.468 0.525788 51.2879 0.557308C55.217 0.571635 59.0187 1.25646 62.5713 3.03013C66.69 5.08461 69.3679 8.3139 70.203 12.9501C70.9588 17.145 70.2171 21.1623 68.5413 25.0105C67.0354 28.4661 64.5103 30.9991 61.2691 32.8244C60.3265 33.3545 59.3782 33.8817 58.3506 34.4577ZM40.7178 30.4031C41.4368 28.4633 42.0851 26.7039 42.739 24.9503C43.8458 21.9875 44.9668 19.0333 46.0623 16.0676C46.3963 15.1593 46.2774 15.0017 45.3518 14.9988C40.2904 14.9931 35.229 15.0017 30.1676 14.9845C29.5533 14.9845 29.2108 15.2051 29.0325 15.804C28.639 17.125 28.2115 18.4373 27.7926 19.7496C26.0234 25.2999 24.2513 30.8501 22.4849 36.4033C22.2075 37.2715 21.9499 38.1454 21.6583 39.0881C21.9895 39.1053 22.1962 39.1282 22.4028 39.1282C26.0517 39.1282 29.7005 39.1282 33.3494 39.1282C34.3486 39.1282 34.3684 39.1798 34.1024 40.1311C33.1993 43.3346 32.3246 46.5467 31.4216 49.7531C30.6035 52.6586 29.76 55.5583 28.9306 58.461C28.9051 58.5498 28.9277 58.653 28.9277 58.8908C36.0811 49.3777 43.1466 39.9821 50.3509 30.4003H40.7178V30.4031Z" fill="#FECB10"/>
<path d="M15.589 64.1802C18.6972 64.1802 20.6532 66.739 19.9823 69.8135C19.3058 72.9081 17.4941 75.0428 14.7199 76.3609C13.3272 77.0228 11.8439 77.2119 10.3266 76.7191C8.63381 76.1689 7.48735 74.656 7.42225 72.8365C7.33449 70.4124 8.32526 68.441 9.97559 66.7848C11.524 65.2289 13.3385 64.2031 15.5918 64.1802H15.589Z" fill="#FECB10"/>
<path d="M40.0467 64.1946C43.2766 64.1832 45.0855 66.3494 44.8024 69.3896C44.4769 72.8395 40.9129 76.5559 37.2896 76.9656C33.6322 77.3783 31.2034 74.1862 32.4433 70.5099C33.5105 67.3494 35.6392 65.3179 38.7899 64.3666C38.9682 64.3121 39.1522 64.2605 39.339 64.2405C39.6419 64.2061 39.9476 64.2004 40.0495 64.1946H40.0467Z" fill="#FECB10"/>
</g>
<defs>
<clipPath id="clip0_281_6699">
<rect width="70.5" height="76.5" fill="white" transform="translate(0 0.5)"/>
</clipPath>
</defs>
</svg>
