<svg width="186" height="55" viewBox="0 0 186 55" fill="none" xmlns="http://www.w3.org/2000/svg">
<path d="M184.766 48.5066C184.766 49.9047 184.209 51.2455 183.218 52.2337C182.226 53.2218 180.882 53.7761 179.481 53.7746H6.51894C3.59981 53.7776 1.2307 51.4194 1.2269 48.5069V6.49862C1.2307 3.58502 3.59869 1.22488 6.51894 1.22412H179.48C180.882 1.22403 182.226 1.77974 183.218 2.76895C184.209 3.75816 184.766 5.0998 184.765 6.49862L184.766 48.5066Z" fill="white"/>
<path d="M179.481 55H6.51896C2.92312 54.9992 0.00665009 52.0942 0 48.5066V6.50031C0.00512808 2.91093 2.92137 0.00302825 6.51896 0H179.48C183.077 0.00453901 185.992 2.91156 185.999 6.50031V48.5066C186.001 52.0884 183.072 55 179.481 55H179.481Z" fill="#A6A6A6"/>
<path d="M184.766 48.5066C184.766 49.9047 184.209 51.2455 183.218 52.2337C182.226 53.2218 180.882 53.7761 179.481 53.7746H6.51894C3.59981 53.7776 1.2307 51.4194 1.2269 48.5069V6.49862C1.2307 3.58502 3.59869 1.22488 6.51894 1.22412H179.48C180.882 1.22403 182.226 1.77974 183.218 2.76895C184.209 3.75816 184.766 5.0998 184.765 6.49862L184.766 48.5066Z" fill="black"/>
<path fill-rule="evenodd" clip-rule="evenodd" d="M38.9212 8.55078C39.1499 10.626 38.3257 12.6713 37.1208 14.1745C35.8636 15.6547 33.8524 16.7863 31.8935 16.6406C31.6372 14.6437 32.6296 12.5201 33.7408 11.2245C34.9966 9.75391 37.1773 8.62778 38.9212 8.55078ZM45.3338 20.5231C45.1147 20.6536 41.4924 22.8111 41.5321 27.2106C41.5789 32.5222 46.1917 34.2798 46.2468 34.299C46.2193 34.4231 45.5242 36.8352 43.7944 39.282C42.3495 41.4373 40.836 43.5459 38.4317 43.583C37.289 43.6091 36.5173 43.2816 35.7131 42.9403C34.8742 42.5842 33.9999 42.2132 32.6323 42.2132C31.1831 42.2132 30.2704 42.5962 29.3902 42.9656C28.6286 43.2852 27.8915 43.5946 26.8522 43.6367C24.5623 43.7205 22.8133 41.337 21.316 39.1995C18.3234 34.8384 15.9936 26.9094 19.1174 21.5136C20.6309 18.8678 23.3909 17.1634 26.3411 17.1181C27.6401 17.0914 28.886 17.5909 29.9782 18.0289C30.8134 18.3637 31.5586 18.6625 32.1691 18.6625C32.7054 18.6625 33.4299 18.3756 34.2743 18.0413C35.605 17.5143 37.2334 16.8695 38.8923 17.0438C40.0269 17.0768 43.2553 17.4907 45.3382 20.5205L45.3338 20.5231Z" fill="white"/>
<path d="M179.481 0H86.8372L123.124 55H179.481C183.077 54.997 185.993 52.0909 186 48.5027V6.50004C185.994 2.91107 183.078 0.00378551 179.481 0Z" fill="url(#paint0_linear_369_420)"/>
<path fill-rule="evenodd" clip-rule="evenodd" d="M97.9993 18.4756H96.5529V9.01282H97.9993V18.4756ZM62.3245 18.5553C61.5067 18.5553 60.7996 18.5154 60.2109 18.4481V9.59891C61.0342 9.47204 61.8662 9.40952 62.6992 9.41191C66.0699 9.41191 67.622 11.0664 67.622 13.7634C67.622 16.8744 65.7885 18.5553 62.3245 18.5553ZM119.734 41.9987C120.819 41.0208 121.365 39.754 121.365 38.1958C121.365 36.9319 120.993 35.8714 120.244 35.0213C119.501 34.1712 118.34 33.4314 116.761 32.7959C115.473 32.2899 114.583 31.8179 114.095 31.3848C113.532 30.9145 113.25 30.3147 113.25 29.5928C113.25 28.9379 113.498 28.3866 113.987 27.9338C114.569 27.4279 115.382 27.1735 116.419 27.1735C117.731 27.1735 118.904 27.454 119.944 28.015L120.681 25.6249C119.577 25.0457 118.186 24.7552 116.517 24.7552C114.648 24.7552 113.145 25.2354 112.012 26.1955C110.879 27.157 110.311 28.3862 110.311 29.8884C110.311 32.1881 111.918 33.9361 115.13 35.1313C116.311 35.5644 117.152 36.0364 117.661 36.5424C118.167 37.0501 118.425 37.673 118.425 38.4172C118.425 39.2477 118.113 39.9135 117.497 40.4113C116.882 40.908 116.021 41.1579 114.912 41.1579C113.371 41.1579 111.955 40.7788 110.666 40.0167L109.987 42.4607C111.18 43.2214 112.763 43.6006 114.737 43.6006C116.874 43.6006 118.541 43.0657 119.734 41.9987ZM73.9784 43.3297H70.8477L69.1327 37.9535H63.1721L61.5384 43.3297H58.4908L64.3977 25.0264H68.0453L73.9784 43.3297ZM68.6161 35.6981L67.065 30.9186C66.9011 30.4305 66.5921 29.2803 66.1402 27.4705H66.0851C65.9029 28.2491 65.6122 29.3989 65.2137 30.9183L63.6891 35.6981H68.6161ZM87.306 41.8898C88.5287 40.5873 89.1395 38.8132 89.1395 36.5685C89.1395 34.5593 88.6169 32.9389 87.576 31.7055C86.5341 30.4742 85.2314 29.8595 83.6711 29.8595C81.6747 29.8595 80.1873 30.6478 79.2071 32.2239H79.1519L78.988 30.1318H76.4033C76.4749 31.6144 76.5121 33.0599 76.5121 34.4699V48.6816H79.4509V41.7564C80.2163 43.0052 81.4763 43.6284 83.2281 43.6284C84.8508 43.6284 86.2113 43.0492 87.306 41.8898ZM86.1452 36.6758C86.1452 35.3912 85.8559 34.3321 85.2738 33.4974C84.6386 32.6295 83.7851 32.1946 82.7156 32.1946C81.9902 32.1946 81.3312 32.437 80.7429 32.9141C80.1529 33.3953 79.7668 34.0244 79.5863 34.8027C79.5056 35.0938 79.4597 35.3935 79.4495 35.6954V37.8971C79.4495 38.8562 79.7447 39.666 80.3348 40.3288C80.9248 40.9888 81.6912 41.3205 82.6339 41.3205C83.741 41.3205 84.6028 40.8929 85.219 40.0442C85.8362 39.1927 86.1452 38.0703 86.1452 36.6758ZM102.521 41.8898C103.744 40.5873 104.354 38.8132 104.354 36.5685C104.354 34.5593 103.83 32.9389 102.791 31.7055C101.746 30.4742 100.443 29.8595 98.8841 29.8595C96.8867 29.8595 95.399 30.6478 94.4205 32.2239H94.3654L94.2014 30.1318H91.6167C91.6883 31.6144 91.7255 33.0599 91.7255 34.4699V48.6816H94.6643V41.7564C95.4297 43.0052 96.6897 43.6284 98.4415 43.6284C100.066 43.6284 101.425 43.0492 102.521 41.8898ZM101.359 36.6758C101.359 35.3912 101.068 34.3321 100.486 33.4974C99.8503 32.6295 98.9999 32.1946 97.93 32.1946C97.205 32.1946 96.546 32.437 95.9546 32.9141C95.3646 33.3953 94.9798 34.0244 94.7997 34.8027C94.7101 35.1657 94.6619 35.4613 94.6619 35.6954V37.8971C94.6619 38.8562 94.9581 39.666 95.5454 40.3288C96.1355 40.9878 96.9018 41.3205 97.8474 41.3205C98.9558 41.3205 99.8176 40.8929 100.432 40.0442C101.05 39.1927 101.359 38.0703 101.359 36.6758ZM131.107 32.3325H127.867V38.7403C127.867 40.37 128.438 41.183 129.582 41.183C130.108 41.183 130.543 41.139 130.888 41.0469L130.969 43.2737C130.39 43.4896 129.628 43.5982 128.684 43.5982C127.523 43.5982 126.616 43.2448 125.961 42.5377C125.309 41.8306 124.981 40.6468 124.981 38.9799V32.3266H123.051V30.1263H124.981V27.7097L127.867 26.8404V30.1266H131.107V32.3325ZM143.952 41.6189C145.113 40.3164 145.694 38.6506 145.694 36.6225V36.6221C145.694 34.6473 145.133 33.0378 144.006 31.7918C142.826 30.5072 141.267 29.8633 139.326 29.8633C137.312 29.8633 135.71 30.5154 134.52 31.8193C133.333 33.1217 132.738 34.7968 132.738 36.8421C132.738 38.7967 133.314 40.4171 134.467 41.7028C135.619 42.986 137.164 43.6284 139.108 43.6284C141.122 43.6284 142.738 42.9599 143.952 41.6189ZM142.648 36.6895C142.648 35.4805 142.386 34.4438 141.861 33.5758C141.245 32.5277 140.362 32.0038 139.22 32.0038C138.042 32.0038 137.139 32.5277 136.525 33.5758C135.998 34.4438 135.736 35.4984 135.736 36.7445C135.736 37.9548 135.998 38.9947 136.525 39.8599C137.16 40.908 138.046 41.4319 139.195 41.4319C140.318 41.4319 141.199 40.897 141.836 39.8334C142.377 38.9452 142.648 37.9016 142.648 36.6895ZM154.325 32.6295C154.636 32.6284 154.946 32.6555 155.252 32.7106L155.249 29.9132C155.031 29.8788 154.786 29.8595 154.514 29.8595C153.748 29.8606 153.003 30.1085 152.39 30.5663C151.72 31.0905 151.232 31.7904 150.92 32.6583H150.839L150.732 30.1332H148.172C148.231 31.5173 148.26 32.9026 148.257 34.2881V43.3301H151.196V36.4049C151.196 35.3558 151.442 34.4861 151.93 33.7986C152.492 33.0172 153.292 32.6295 154.325 32.6295ZM168.396 36.1065C168.403 36.5522 168.367 36.9977 168.289 37.4365H159.472C159.505 38.7403 159.932 39.7389 160.751 40.4264C161.494 41.04 162.455 41.348 163.635 41.348C164.94 41.348 166.131 41.1418 167.202 40.7251L167.663 42.7591C166.411 43.3039 164.933 43.5748 163.228 43.5748C161.177 43.5748 159.567 42.9722 158.395 41.7701C157.226 40.567 156.64 38.9493 156.64 36.9233C156.64 34.9347 157.184 33.2774 158.275 31.9557C159.416 30.5443 160.959 29.8389 162.9 29.8389C164.806 29.8389 166.25 30.5443 167.23 31.9557C168.006 33.0736 168.396 34.4603 168.396 36.1065H168.396ZM165.023 33.0915C165.421 33.7257 165.614 34.4754 165.593 35.3458L159.473 35.343C159.562 34.4589 159.854 33.6968 160.343 33.0626C160.938 32.2651 161.721 31.8677 162.682 31.8677C163.731 31.8677 164.514 32.2747 165.023 33.0915ZM61.6545 10.6401C61.9755 10.5738 62.363 10.5463 62.8177 10.5463C64.9588 10.5463 66.0961 11.7085 66.0961 13.8033C66.0961 16.1522 64.8389 17.4068 62.6303 17.4068C62.1615 17.4068 61.8281 17.3945 61.6545 17.367V10.6401ZM72.4594 18.6227C70.5598 18.6227 69.3284 17.2075 69.3284 15.2859C69.3284 13.2836 70.5856 11.8556 72.5669 11.8556C74.4389 11.8556 75.6975 13.2038 75.6975 15.18C75.6975 17.2075 74.4003 18.6227 72.4594 18.6227ZM70.8023 15.2447C70.8023 13.8831 71.4708 12.9096 72.5145 12.9096V12.9092C73.5306 12.9092 74.1988 13.8972 74.1988 15.2172C74.1988 16.5128 73.5161 17.554 72.5004 17.554C71.4846 17.554 70.8023 16.5801 70.8023 15.2447ZM86.5299 11.9893L84.4963 18.4756H83.1716L82.3294 15.6589C82.12 14.9698 81.9456 14.2707 81.8069 13.5641H81.7794C81.6733 14.2708 81.4721 14.9793 81.2582 15.6589L80.3623 18.4756H79.0238L77.1104 11.989H78.595L79.3311 15.0728C79.505 15.8074 79.651 16.5004 79.7723 17.1552H79.7998C79.9059 16.609 80.0795 15.927 80.3348 15.0865L81.2582 11.9907H82.4355L83.3194 15.0205C83.5243 15.7247 83.6985 16.4374 83.8416 17.1566H83.8801C83.9742 16.4897 84.1212 15.7813 84.3214 15.0205L85.1112 11.9907L86.5299 11.9893ZM92.5705 18.4756H94.0151L94.0164 14.5912C94.0164 12.8968 93.1205 11.8553 91.7559 11.8553C90.872 11.8553 90.0836 12.2956 89.695 12.9886H89.6547L89.5872 11.9876H88.3162C88.3562 12.6545 88.37 13.2695 88.37 13.8428V18.4756H89.8149V14.6177C89.8149 13.7634 90.4036 13.0288 91.2595 13.0288C92.1296 13.0288 92.5705 13.6039 92.5705 14.751V18.4756ZM100.135 15.2859C100.135 17.2075 101.368 18.6227 103.266 18.6227C105.206 18.6227 106.505 17.2075 106.503 15.18C106.503 13.2038 105.246 11.8556 103.373 11.8556C101.393 11.8556 100.135 13.2836 100.135 15.2859ZM103.32 12.9096C102.277 12.9096 101.608 13.8831 101.608 15.2447C101.608 16.5801 102.292 17.554 103.305 17.554C104.322 17.554 105.003 16.5128 105.003 15.2172C105.005 13.8972 104.337 12.9092 103.32 12.9092V12.9096ZM112.095 17.7286L112.199 18.4756L113.502 18.4769C113.437 18.0902 113.408 17.5828 113.408 16.9283V14.5393C113.408 12.7497 112.551 11.8556 110.853 11.8556C109.971 11.8556 109.222 12.043 108.621 12.417L108.914 13.3643C109.409 13.044 109.972 12.8831 110.612 12.8831C111.509 12.8831 111.962 13.3111 111.962 14.1649V14.2846C109.554 14.2846 108.163 15.1127 108.163 16.7135C108.163 17.8083 108.99 18.6223 110.155 18.6223C110.971 18.6223 111.615 18.3298 112.056 17.7286H112.095ZM112.001 15.2447C110.396 15.2447 109.591 15.6328 109.591 16.5526C109.591 17.2333 110.006 17.5663 110.582 17.5663C111.317 17.5663 112.001 17.0067 112.001 16.246V15.2447ZM120.356 17.434L120.424 18.4756L121.71 18.4752C121.671 17.9414 121.656 17.3543 121.656 16.7269V9.01316H120.21V12.736H120.181C119.834 12.1475 119.217 11.8543 118.347 11.8543C116.704 11.8543 115.501 13.2836 115.501 15.3124C115.501 17.2473 116.662 18.6227 118.229 18.6227C119.204 18.6227 119.901 18.2212 120.316 17.434H120.356ZM120.21 14.6589C120.21 13.7511 119.607 12.9766 118.688 12.9766C117.617 12.9766 116.962 13.9243 116.962 15.2584C116.962 16.5664 117.642 17.4618 118.659 17.4618C119.567 17.4618 120.21 16.6736 120.21 15.7397L120.21 14.6589ZM127.695 15.2859C127.695 17.2075 128.926 18.6223 130.824 18.6223V18.6227C132.767 18.6227 134.064 17.2075 134.063 15.18C134.063 13.2038 132.806 11.8556 130.932 11.8556C128.952 11.8556 127.695 13.2836 127.695 15.2859ZM130.878 12.9092C129.836 12.9092 129.167 13.8831 129.167 15.2447C129.167 16.5801 129.85 17.554 130.864 17.554C131.882 17.554 132.563 16.5128 132.563 15.2172C132.566 13.8972 131.897 12.9092 130.878 12.9092ZM140.386 18.4756H141.832V14.5898C141.832 12.8951 140.935 11.8543 139.57 11.8543C138.687 11.8543 137.898 12.2956 137.51 12.9886H137.47L137.403 11.9876H136.132C136.172 12.6545 136.185 13.2695 136.185 13.8428V18.4756H137.632V14.6177C137.632 13.7634 138.219 13.0288 139.075 13.0288C139.945 13.0288 140.386 13.6039 140.386 14.751V18.4756ZM151.552 13.0701H149.962V16.2199C149.962 17.0218 150.241 17.422 150.803 17.422C151.058 17.422 151.272 17.3945 151.444 17.3546L151.484 18.4494C151.205 18.5567 150.83 18.6103 150.364 18.6103C149.225 18.6103 148.544 17.983 148.544 16.3409V13.0701H147.595V11.9893H148.544V10.8007L149.962 10.3727V11.9876H151.552L151.552 13.0701ZM157.757 18.4756H159.2V14.6177C159.2 12.9216 158.359 11.8543 156.983 11.8543C156.143 11.8543 155.483 12.2025 155.029 12.9092H155V9.01282H153.556V18.4756H155V14.5654C155 13.5379 155.697 13.0302 156.446 13.0302C157.317 13.0302 157.757 13.6177 157.757 14.7785V18.4756ZM167.036 15.5788H162.7C162.728 16.807 163.542 17.5003 164.748 17.5003C165.389 17.5003 165.979 17.3931 166.501 17.1937L166.725 18.1951C166.11 18.4618 165.387 18.5952 164.545 18.5952C162.511 18.5952 161.308 17.313 161.308 15.3261C161.308 13.3372 162.54 11.8419 164.382 11.8419C166.043 11.8419 167.085 13.0701 167.085 14.9253C167.095 15.1443 167.078 15.3637 167.036 15.5788ZM164.281 12.8432C165.204 12.8432 165.711 13.5503 165.711 14.5517H162.701C162.795 13.5641 163.451 12.8432 164.281 12.8432Z" fill="white"/>
<defs>
<linearGradient id="paint0_linear_369_420" x1="315.231" y1="55.146" x2="315.231" y2="-143.211" gradientUnits="userSpaceOnUse">
<stop stop-color="#1A1A1A" stop-opacity="0.1"/>
<stop offset="0.123" stop-color="#212121" stop-opacity="0.151"/>
<stop offset="0.308" stop-color="#353535" stop-opacity="0.227"/>
<stop offset="0.532" stop-color="#575757" stop-opacity="0.318"/>
<stop offset="0.783" stop-color="#858585" stop-opacity="0.421"/>
<stop offset="1" stop-color="#B3B3B3" stop-opacity="0.51"/>
</linearGradient>
</defs>
</svg>
