<svg width="186" height="55" viewBox="0 0 186 55" fill="none" xmlns="http://www.w3.org/2000/svg">
<path d="M179.111 55H6.88889C3.03111 55 0 51.975 0 48.125V6.875C0 3.025 3.03111 0 6.88889 0H179.111C182.969 0 186 3.025 186 6.875V48.125C186 51.975 182.969 55 179.111 55Z" fill="black"/>
<path fill-rule="evenodd" clip-rule="evenodd" d="M6.88889 0H179.111C182.969 0 186 3.1625 186 6.875V48.125C186 51.975 182.969 55 179.111 55H6.88889C3.03111 55 0 51.975 0 48.125V6.875C0 3.1625 3.03111 0 6.88889 0ZM184.898 6.875C184.898 3.7125 182.28 1.1 179.111 1.1H6.88889C3.72 1.1 1.10222 3.7125 1.10222 6.875V48.125C1.10222 51.2875 3.72 53.9 6.88889 53.9H179.111C182.28 53.9 184.898 51.2875 184.898 48.125V6.875Z" fill="#A6A6A6"/>
<path fill-rule="evenodd" clip-rule="evenodd" d="M64.3422 16.775C65.0311 16.0875 65.3067 15.125 65.3067 14.025V13.475H61.3111V14.575H64.3422C64.3422 15.2625 64.0667 15.8125 63.6533 16.225C62.9645 16.9125 62.2756 17.1875 61.3111 17.1875C60.4845 17.1875 59.7956 16.775 59.1067 16.225C58.4178 15.675 58.1422 14.85 58.1422 13.8875C58.1422 12.925 58.4178 12.1 59.1067 11.55C59.6578 10.8625 60.4845 10.5875 61.3111 10.5875C62.2756 10.5875 62.9644 10.8625 63.5156 11.55L64.2044 10.8625C63.9289 10.45 63.5156 10.175 62.9644 9.90005C62.4133 9.62505 61.8622 9.48755 61.3111 9.48755C60.0711 9.48755 59.1067 9.90005 58.28 10.725C57.4533 11.55 57.04 12.5125 57.04 13.75C57.04 14.9875 57.4533 15.95 58.28 16.775C59.1067 17.6 60.0711 18.0125 61.3111 18.0125C62.5511 18.0125 63.5156 17.6 64.3422 16.775ZM67.9245 10.5875H71.6445V9.62505H66.8222V17.875H71.6445V16.775H67.9245V14.1625H71.3689V13.2H67.9245V10.5875ZM76.1911 17.875H75.0889V10.5875H72.7467V9.62505H78.5333V10.5875H76.1911V17.875ZM82.5289 9.62505V17.875H83.6311V9.62505H82.5289ZM88.1778 17.875H87.2133V10.5875H84.8711V9.62505H90.52V10.5875H88.1778V17.875ZM98.3733 18.0125C99.6133 18.0125 100.578 17.6 101.404 16.775C102.231 15.95 102.644 14.9875 102.644 13.75C102.644 12.5125 102.231 11.55 101.404 10.725C100.578 9.90005 99.6133 9.48755 98.3733 9.48755C97.1333 9.48755 96.1689 9.90005 95.3422 10.725C94.5156 11.55 94.1022 12.5125 94.1022 13.75C94.1022 14.9875 94.5156 15.95 95.3422 16.775C96.1689 17.6 97.1333 18.0125 98.3733 18.0125ZM96.1689 16.0875C96.72 16.6375 97.5467 17.05 98.3733 17.05C99.2 17.05 100.027 16.775 100.578 16.0875C101.129 15.5375 101.542 14.7125 101.542 13.75C101.542 12.7875 101.267 11.9625 100.578 11.4125C100.027 10.8625 99.2 10.45 98.3733 10.45C97.5467 10.45 96.72 10.725 96.1689 11.4125C95.6178 11.9625 95.2045 12.7875 95.2045 13.75C95.2045 14.7125 95.48 15.5375 96.1689 16.0875ZM104.16 9.62505V17.875H105.124V11.1375L109.396 17.875H110.498V9.62505H109.396V16.0875L105.4 9.62505H104.16Z" fill="white"/>
<path fill-rule="evenodd" clip-rule="evenodd" d="M65.72 31.7625V34.2375H71.6445C71.5067 35.6125 70.9556 36.7125 70.2667 37.4C69.44 38.225 68.0622 39.1875 65.72 39.1875C62 39.1875 59.2445 36.3 59.2445 32.5875C59.2445 28.875 62.1378 25.9875 65.72 25.9875C67.6489 25.9875 69.1645 26.8125 70.2667 27.775L72.0578 25.9875C70.5422 24.6125 68.6133 23.5125 65.8578 23.5125C60.8978 23.5125 56.6267 27.6375 56.6267 32.5875C56.6267 37.5375 60.8978 41.6625 65.8578 41.6625C68.6133 41.6625 70.5422 40.8375 72.1956 39.05C73.8489 37.4 74.4 35.0625 74.4 33.275C74.4 32.725 74.4 32.175 74.2622 31.7625H65.72ZM81.0133 29.975C77.7067 29.975 75.0889 32.45 75.0889 35.8875C75.0889 39.1875 77.7067 41.7999 81.0133 41.7999C84.32 41.7999 86.9378 39.325 86.9378 35.8875C86.9378 32.3125 84.32 29.975 81.0133 29.975ZM87.9022 35.8875C87.9022 32.45 90.52 29.975 93.8267 29.975C97.1333 29.975 99.7511 32.3125 99.7511 35.8875C99.7511 39.325 97.1333 41.7999 93.8267 41.7999C90.52 41.7999 87.9022 39.1875 87.9022 35.8875ZM90.52 35.75C90.52 37.8125 92.0356 39.325 93.8267 39.325C95.6178 39.325 97.1333 37.8125 97.1333 35.75C97.1333 33.5499 95.6178 32.1749 93.8267 32.1749C92.0356 32.1749 90.52 33.6875 90.52 35.75ZM77.7067 35.75C77.7067 37.8125 79.2222 39.325 81.0133 39.325C82.8045 39.325 84.32 37.8125 84.32 35.75C84.32 33.5499 82.8045 32.1749 81.0133 32.1749C79.2222 32.1749 77.7067 33.6875 77.7067 35.75ZM123.311 29.975C126.342 29.975 127.72 32.3125 128.271 33.6875L128.547 34.375L120.693 37.6749C121.382 38.9124 122.209 39.4625 123.587 39.4625C124.964 39.4625 125.791 38.775 126.48 37.8125L128.409 39.1875C127.858 40.15 126.204 41.7999 123.587 41.7999C120.28 41.7999 117.8 39.1875 117.8 35.8875C117.8 32.3125 120.28 29.975 123.311 29.975ZM120.28 35.6124C120.28 33.4124 122.071 32.1749 123.311 32.1749C124.276 32.1749 125.24 32.7249 125.516 33.4124L120.28 35.6124ZM116.422 41.25H113.804V24.0625H116.422V41.25ZM109.671 31.2125C108.982 30.525 107.88 29.8375 106.502 29.8375C103.609 29.8375 100.853 32.45 100.853 35.75C100.853 39.05 103.471 41.525 106.502 41.525C107.88 41.525 108.982 40.8375 109.533 40.15H109.671V40.975C109.671 43.175 108.431 44.4125 106.502 44.4125C104.987 44.4125 103.884 43.3125 103.609 42.35L101.404 43.3125C102.093 44.825 103.747 46.75 106.64 46.75C109.671 46.75 112.151 44.9625 112.151 40.6999V30.2499H109.671V31.2125ZM103.333 35.75C103.333 37.8125 104.849 39.325 106.64 39.325C108.431 39.325 109.809 37.8125 109.809 35.75C109.809 33.6875 108.431 32.1749 106.64 32.1749C104.849 32.1749 103.333 33.6875 103.333 35.75ZM140.258 24.0625H134.058V41.25H136.676V34.7875H140.258C143.151 34.7875 145.907 32.725 145.907 29.425C145.907 26.125 143.151 24.0625 140.258 24.0625ZM136.676 32.3125H140.396C142.187 32.3125 143.289 30.8 143.427 29.2875C143.427 28.05 142.324 26.4 140.396 26.4H136.676V32.3125ZM156.24 29.8375C154.311 29.8375 152.382 30.6625 151.693 32.45L154.036 33.4125C154.587 32.45 155.413 32.175 156.378 32.175C157.756 32.175 158.996 33 159.133 34.375V34.5125C158.72 34.2375 157.618 33.825 156.516 33.825C154.036 33.825 151.556 35.2 151.556 37.675C151.556 40.0125 153.622 41.525 155.827 41.525C157.618 41.525 158.444 40.7 159.133 39.875H159.271V41.25H161.751V34.65C161.476 31.625 159.133 29.8375 156.24 29.8375ZM153.898 37.8125C153.898 38.9125 155.138 39.325 155.964 39.325C157.342 39.325 158.72 38.225 158.996 36.575C158.926 36.5472 158.858 36.5194 158.79 36.4919C158.19 36.2472 157.644 36.025 156.653 36.025C155.413 36.025 153.898 36.4375 153.898 37.8125ZM170.431 30.25L167.538 37.675H167.4L164.369 30.25H161.613L166.16 40.7L163.542 46.475H166.16L173.187 30.25H170.431ZM149.902 41.25H147.284V24.0625H149.902V41.25Z" fill="white"/>
<path d="M14.3289 10.3125C13.9155 10.725 13.7778 11.4125 13.7778 12.2375V42.625C13.7778 43.45 14.0533 44.1375 14.4667 44.55L14.6044 44.6875L31.6889 27.6375V27.3625L14.3289 10.3125Z" fill="url(#paint0_linear_369_1853)"/>
<path d="M37.2 33.4125L31.5511 27.775V27.3625L37.2 21.725L37.3378 21.8625L44.0889 25.7125C46.0178 26.8125 46.0178 28.6 44.0889 29.7L37.2 33.4125Z" fill="url(#paint1_linear_369_1853)"/>
<path d="M37.3378 33.275L31.5511 27.5L14.3289 44.6875C15.0178 45.375 15.9822 45.375 17.2222 44.825L37.3378 33.275Z" fill="url(#paint2_linear_369_1853)"/>
<path d="M37.3378 21.725L17.2222 10.3125C15.9822 9.62497 15.0178 9.76247 14.3289 10.45L31.5511 27.5L37.3378 21.725Z" fill="url(#paint3_linear_369_1853)"/>
<path opacity="0.2" d="M37.2 33.1375L17.2222 44.4124C16.12 45.0999 15.1556 44.9624 14.4667 44.4124L14.3289 44.5499L14.4667 44.6874C15.1556 45.2374 16.12 45.3749 17.2222 44.6874L37.2 33.1375Z" fill="black"/>
<path opacity="0.12" fill-rule="evenodd" clip-rule="evenodd" d="M37.2 33.1375L44.0889 29.2875C44.9155 28.7375 45.4667 28.1875 45.4667 27.5C45.4667 28.1875 45.0533 28.875 44.0889 29.425L37.3378 33.275L37.2 33.1375ZM13.8026 43.0471C13.8582 43.6218 14.0131 44.0974 14.3289 44.4125H14.3423C14.3822 44.4612 14.4237 44.5071 14.4667 44.55V44.4125H14.3423C14.0664 44.0754 13.8694 43.6032 13.8026 43.0471ZM13.8026 43.0471C13.7855 42.8694 13.7778 42.6823 13.7778 42.4875V42.625C13.7778 42.7702 13.7863 42.9112 13.8026 43.0471Z" fill="black"/>
<path opacity="0.25" d="M17.2222 10.45L44.0889 25.7125C44.9155 26.2625 45.4667 26.8125 45.4667 27.5C45.4667 26.8125 45.0533 26.125 44.0889 25.575L17.2222 10.3125C15.2933 9.21251 13.7778 10.0375 13.7778 12.2375V12.375C13.7778 10.3125 15.2933 9.35001 17.2222 10.45Z" fill="white"/>
<defs>
<linearGradient id="paint0_linear_369_1853" x1="24.0239" y1="-10.2128" x2="-3.34239" y2="-2.79847" gradientUnits="userSpaceOnUse">
<stop stop-color="#00A0FF"/>
<stop offset="0.007" stop-color="#00A1FF"/>
<stop offset="0.26" stop-color="#00BEFF"/>
<stop offset="0.512" stop-color="#00D2FF"/>
<stop offset="0.76" stop-color="#00DFFF"/>
<stop offset="1" stop-color="#00E3FF"/>
</linearGradient>
<linearGradient id="paint1_linear_369_1853" x1="46.6157" y1="13.5702" x2="13.2776" y2="13.5702" gradientUnits="userSpaceOnUse">
<stop stop-color="#FFE000"/>
<stop offset="0.409" stop-color="#FFBD00"/>
<stop offset="0.775" stop-color="#FFA500"/>
<stop offset="1" stop-color="#FF9C00"/>
</linearGradient>
<linearGradient id="paint2_linear_369_1853" x1="13.8921" y1="18.5818" x2="-8.03895" y2="55.4762" gradientUnits="userSpaceOnUse">
<stop stop-color="#FF3A44"/>
<stop offset="1" stop-color="#C31162"/>
</linearGradient>
<linearGradient id="paint3_linear_369_1853" x1="0.939746" y1="5.60934" x2="10.656" y2="22.1077" gradientUnits="userSpaceOnUse">
<stop stop-color="#32A071"/>
<stop offset="0.069" stop-color="#2DA771"/>
<stop offset="0.476" stop-color="#15CF74"/>
<stop offset="0.801" stop-color="#06E775"/>
<stop offset="1" stop-color="#00F076"/>
</linearGradient>
</defs>
</svg>
