<svg width="56" height="56" viewBox="0 0 56 56" fill="none" xmlns="http://www.w3.org/2000/svg">
<path d="M21.8651 23.5159C20.544 24.4586 19.7058 25.4022 19.351 26.2459C18.9842 26.9968 18.7893 27.776 18.766 28.784H27.4401V26.432H21.9088C22.066 26.208 22.2594 25.9707 22.4894 25.7727C22.7191 25.575 23.1463 25.2701 23.7702 24.8277L24.7673 24.1281C25.6071 23.5345 26.2106 23 26.5779 22.5168C27.1377 21.7893 27.4177 20.9591 27.4177 20.022C27.4177 18.7997 27.0214 17.8185 26.2291 17.0765C25.4368 16.3344 24.3707 15.9637 23.0306 15.9637C21.3353 15.9637 20.1555 16.6091 19.4913 17.872C19.1418 18.5355 18.9465 19.3759 18.9059 20.4959H21.3241C21.3531 19.8239 21.4463 19.2545 21.6033 18.9285C21.8769 18.364 22.3919 18.0749 23.1486 18.0749C23.7014 18.0749 24.1264 18.2492 24.4231 18.604C24.72 18.9592 24.8683 19.4027 24.8683 19.9381C24.8683 20.5958 24.6093 21.2003 24.0914 21.7531C23.7537 22.1084 23.0118 22.6952 21.8651 23.5159ZM37.5201 24.08H36.0641V16.128H33.2753L28.6721 23.7865V25.872H33.6001V28.784H36.0641V25.872H37.5201V24.08ZM33.6001 24.08H30.4736L33.6001 18.5611V24.08Z" fill="#0A81D1"/>
<path d="M19.1521 33.152H17.3601V31.248H16.1281V36.288H17.3601V33.936H19.1521V36.288H20.1601V31.248H19.1521V33.152Z" fill="#0A81D1"/>
<path d="M23.4038 31.1613C22.695 31.1613 22.1533 31.3542 21.7788 31.7401C21.2762 32.1952 21.0251 32.8771 21.0251 33.7856C21.0251 34.6759 21.2762 35.3579 21.7788 35.8312C22.1533 36.2169 22.695 36.4098 23.4038 36.4098C24.1125 36.4098 24.6541 36.2169 25.0288 35.8312C25.529 35.358 25.779 34.676 25.779 33.7856C25.779 32.8771 25.529 32.1954 25.0288 31.7401C24.6541 31.3542 24.1124 31.1613 23.4038 31.1613ZM24.381 35.0774C24.1399 35.3802 23.8142 35.5316 23.4037 35.5316C22.9932 35.5316 22.6657 35.3802 22.4213 35.0774C22.1768 34.7746 22.0545 34.344 22.0545 33.7855C22.0545 33.227 22.1768 32.7963 22.4213 32.4935C22.6658 32.1908 22.9933 32.0393 23.4037 32.0393C23.8141 32.0393 24.1399 32.1913 24.381 32.4953C24.6221 32.7993 24.7427 33.2292 24.7427 33.7855C24.7427 34.344 24.6221 34.7746 24.381 35.0774ZM29.5679 34.3583C29.5679 34.699 29.492 34.9478 29.4116 35.1046C29.2864 35.3824 28.997 35.5214 28.5791 35.5214C28.159 35.5214 27.898 35.3824 27.7729 35.1046C27.6924 34.9478 27.6639 34.699 27.6639 34.3583V31.2481H26.5439V34.3609C26.5439 34.8879 26.6384 35.2983 26.8019 35.5922C27.1086 36.1305 27.6972 36.3996 28.5548 36.3996C29.4124 36.3996 29.9538 36.1305 30.2583 35.5922C30.4218 35.2984 30.4639 34.8879 30.4639 34.3609V31.2481H29.5679V34.3583ZM35.422 35.8646C35.4037 35.7838 35.3919 35.6303 35.3919 35.4037V35.0706C35.3919 34.723 35.3438 34.4646 35.2485 34.2951C35.153 34.1258 34.9909 33.9952 34.7621 33.9032C35.0357 33.8089 35.2317 33.6481 35.3507 33.4204C35.4696 33.1927 35.529 32.9612 35.529 32.7257C35.529 32.5305 35.4983 32.3567 35.4371 32.2042C35.3758 32.0517 35.2927 31.9126 35.1878 31.787C35.0609 31.6345 34.9061 31.4868 34.7235 31.4082C34.541 31.3297 34.2801 31.2481 33.9411 31.2481H31.4719V36.2881H32.5919V34.2721H33.5938C33.8822 34.2721 34.0791 34.3522 34.184 34.4576C34.2891 34.5631 34.3437 34.7877 34.3479 35.104L34.3547 35.5718C34.357 35.7175 34.3715 35.8715 34.3984 36.0106C34.4118 36.0778 34.4343 36.1761 34.4656 36.2881H35.6159V36.1472C35.5039 36.0867 35.4493 35.9925 35.422 35.8646ZM34.1952 33.4723C34.0845 33.5262 33.9184 33.6001 33.6968 33.6001H32.5919V32.1441H33.7256C33.9386 32.1441 34.0983 32.1882 34.2049 32.2464C34.3944 32.3497 34.4892 32.5824 34.4892 32.883C34.4892 33.1612 34.3913 33.3782 34.1952 33.4723ZM39.9469 33.8089C39.7565 33.6587 39.4705 33.5387 39.0892 33.449L38.2189 33.2438C37.8831 33.1653 37.6636 33.097 37.5602 33.0386C37.3992 32.9511 37.3186 32.8189 37.3186 32.6416C37.3186 32.4487 37.4002 32.2984 37.5634 32.1908C37.7267 32.083 37.9451 32.0293 38.2188 32.0293C38.4648 32.0293 38.6706 32.084 38.8362 32.167C39.0845 32.2927 39.2179 32.4801 39.2362 32.8161H40.2321C40.214 32.2561 40.0182 31.8737 39.6446 31.5966C39.2711 31.3197 38.8198 31.1746 38.2908 31.1746C37.6573 31.1746 37.1771 31.3182 36.8502 31.6119C36.5233 31.9059 36.3597 32.2731 36.3597 32.7173C36.3597 33.204 36.5268 33.5609 36.8612 33.7897C37.0585 33.9265 37.4209 34.0529 37.9487 34.1695L38.4856 34.2869C38.7998 34.3541 39.0293 34.4314 39.1741 34.519C39.3187 34.6087 39.3912 34.7354 39.3912 34.8991C39.3912 35.1795 39.2434 35.3712 38.9481 35.4744C38.7924 35.5281 38.5897 35.555 38.34 35.555C37.9231 35.555 37.6289 35.4426 37.4571 35.2384C37.3633 35.1262 37.3003 34.9439 37.2682 34.7199H36.2791C36.2791 35.2799 36.4661 35.6518 36.8401 35.9466C37.2142 36.2417 37.7277 36.3942 38.3807 36.3942C39.0198 36.3942 39.5147 36.2471 39.8649 35.9477C40.2151 35.6482 40.3904 35.2733 40.3904 34.8203C40.3904 34.3786 40.2426 34.0423 39.9469 33.8089Z" fill="#0A81D1"/>
<path d="M8.89153 36.8196C7.04208 36.8196 5.54285 35.3203 5.54285 33.4709V26.2033C5.54285 24.3538 7.04208 22.8546 8.89153 22.8546C10.741 22.8546 12.2402 24.3538 12.2402 26.2033V33.4709C12.2402 35.3202 10.741 36.8196 8.89153 36.8196ZM47.264 36.8196C45.4145 36.8196 43.9153 35.3203 43.9153 33.4709V26.2033C43.9153 24.3538 45.4145 22.8546 47.264 22.8546C49.1134 22.8546 50.6127 24.3538 50.6127 26.2033V33.4709C50.6127 35.3202 49.1134 36.8196 47.264 36.8196Z" stroke="#0A81D1" stroke-width="2" stroke-miterlimit="10" stroke-linecap="round" stroke-linejoin="round"/>
<path d="M45.6256 36.391V39.1926C45.6256 46.4448 39.7465 52.3238 32.4944 52.3238H28.0803M10.5602 23.1883V20.686C10.5602 11.0031 18.4098 3.15344 28.0928 3.15344C37.7757 3.15344 45.6254 11.0031 45.6254 20.686V23.2829" stroke="#0A81D1" stroke-width="2" stroke-miterlimit="10" stroke-linecap="round" stroke-linejoin="round"/>
<path d="M29.7314 49.3588H26.1675C25.3486 49.3588 24.6849 50.0225 24.6849 50.8413C24.6849 51.6601 25.3486 52.3239 26.1675 52.3239H29.7314C30.5503 52.3239 31.214 51.6601 31.214 50.8413C31.214 50.0225 30.5503 49.3588 29.7314 49.3588Z" stroke="#0A81D1" stroke-width="2" stroke-miterlimit="10" stroke-linecap="round" stroke-linejoin="round"/>
</svg>
