<svg width="56" height="56" viewBox="0 0 56 56" fill="none" xmlns="http://www.w3.org/2000/svg">
<path d="M42.2941 33.2941C38.4018 33.2941 35.2352 36.4606 35.2352 40.3529C35.2352 44.2453 38.4018 47.4118 42.2941 47.4118C46.1871 47.4118 49.3529 44.2453 49.3529 40.3529C49.3529 36.4606 46.1864 33.2941 42.2941 33.2941ZM42.2941 43.8824C40.3476 43.8824 38.7647 42.2994 38.7647 40.3529C38.7647 38.4065 40.3476 36.8235 42.2941 36.8235C44.2405 36.8235 45.8235 38.4065 45.8235 40.3529C45.8235 42.2995 44.2405 43.8824 42.2941 43.8824ZM18.1765 33.2941C14.2841 33.2941 11.1176 36.4606 11.1176 40.3529C11.1176 44.2453 14.2841 47.4118 18.1765 47.4118C22.0688 47.4118 25.2353 44.2453 25.2353 40.3529C25.2353 36.4606 22.0688 33.2941 18.1765 33.2941ZM18.1765 43.8824C16.23 43.8824 14.647 42.2994 14.647 40.3529C14.647 38.4065 16.23 36.8235 18.1765 36.8235C20.1223 36.8235 21.7059 38.4065 21.7059 40.3529C21.7059 42.2995 20.1229 43.8824 18.1765 43.8824ZM47.0476 13.0895C46.9006 12.7973 46.6752 12.5517 46.3968 12.3801C46.1183 12.2085 45.7976 12.1177 45.4706 12.1177H36.1764V15.6471H44.3823L49.1876 25.2047L52.3417 23.6188L47.0476 13.0895Z" fill="#0A81D1"/>
<path d="M23.6471 38.6471H37V42.1766H23.6471V38.6471ZM12.8823 38.6471H6.76473C5.78998 38.6471 5.00008 39.4372 5.00008 40.4118C5.00008 41.3865 5.79009 42.1764 6.76473 42.1764H12.8824C13.8572 42.1764 14.6471 41.3864 14.6471 40.4118C14.6471 39.437 13.857 38.6471 12.8823 38.6471ZM55.6294 27.8588L52.1583 23.3882C51.9935 23.1757 51.7822 23.0037 51.5407 22.8854C51.2991 22.7671 51.0337 22.7057 50.7648 22.7058H37.9412V10.3529C37.9412 9.37816 37.1512 8.58826 36.1765 8.58826H6.76473C5.78998 8.58826 5.00008 9.37827 5.00008 10.3529C5.00008 11.3276 5.79009 12.1176 6.76473 12.1176H34.4118V24.4705C34.4118 25.4452 35.2018 26.2351 36.1764 26.2351H49.9006L52.4706 29.5457V38.6469H47.5882C46.6134 38.6469 45.8235 39.4369 45.8235 40.4116C45.8235 41.3863 46.6135 42.1762 47.5882 42.1762H54.2352C55.21 42.1762 55.9999 41.3862 56 40.4116V28.9412C56 28.5494 55.8694 28.1682 55.6294 27.8588ZM12.7647 29.7059H4.64702C3.67227 29.7059 2.88236 30.496 2.88236 31.4706C2.88236 32.4454 3.67237 33.2353 4.64702 33.2353H12.7646C13.7394 33.2353 14.5293 32.4452 14.5293 31.4706C14.5294 30.496 13.7394 29.7059 12.7647 29.7059ZM16.8235 22.7647H1.76466C0.790016 22.7647 0 23.5547 0 24.5294C0 25.5042 0.790016 26.2941 1.76466 26.2941H16.8235C17.7983 26.2941 18.5882 25.5041 18.5882 24.5294C18.5882 23.5548 17.7983 22.7647 16.8235 22.7647Z" fill="#0A81D1"/>
<path d="M19.7059 15.8235H4.64704C3.67229 15.8235 2.88239 16.6135 2.88239 17.5881C2.88239 18.5629 3.6724 19.3528 4.64704 19.3528H19.7059C20.6807 19.3528 21.4706 18.5628 21.4706 17.5881C21.4707 16.6135 20.6807 15.8235 19.7059 15.8235Z" fill="#0A81D1"/>
</svg>
