<svg width="56" height="56" viewBox="0 0 56 56" fill="none" xmlns="http://www.w3.org/2000/svg">
<g clip-path="url(#clip0_1047_1492)">
<path d="M35.6869 20.1141C35.6108 20.0379 35.5204 19.9774 35.421 19.9362C35.3215 19.895 35.2149 19.8737 35.1072 19.8737C34.9995 19.8737 34.8929 19.895 34.7934 19.9362C34.6939 19.9774 34.6036 20.0379 34.5275 20.1141L20.1141 34.5275C20.0335 34.6026 19.9688 34.6932 19.924 34.7938C19.8792 34.8944 19.855 35.0031 19.8531 35.1132C19.8512 35.2234 19.8714 35.3328 19.9127 35.4349C19.9539 35.537 20.0153 35.6298 20.0932 35.7077C20.1711 35.7856 20.2639 35.847 20.3661 35.8883C20.4682 35.9295 20.5776 35.9498 20.6878 35.9479C20.7979 35.9459 20.9065 35.9218 21.0072 35.877C21.1078 35.8321 21.1983 35.7675 21.2734 35.6869L35.6869 21.2735C35.7631 21.1974 35.8235 21.107 35.8648 21.0075C35.906 20.9081 35.9272 20.8015 35.9272 20.6938C35.9272 20.5861 35.906 20.4795 35.8648 20.38C35.8235 20.2805 35.7631 20.1902 35.6869 20.1141ZM23.1963 27.1775C24.1173 27.177 25.0097 26.857 25.7213 26.2723C26.4329 25.6876 26.9198 24.8742 27.099 23.9707C27.2781 23.0673 27.1385 22.1296 26.7039 21.3176C26.2693 20.5055 25.5665 19.8693 24.7154 19.5173C23.8643 19.1653 22.9174 19.1192 22.0361 19.387C21.1549 19.6549 20.3938 20.2199 19.8824 20.986C19.3711 21.7521 19.1412 22.6718 19.2319 23.5883C19.3226 24.5049 19.7283 25.3617 20.3798 26.0127C20.7495 26.3827 21.1885 26.6761 21.6719 26.876C22.1552 27.0759 22.6732 27.1784 23.1963 27.1775ZM21.5392 21.5392C21.8669 21.2116 22.2843 20.9884 22.7388 20.898C23.1932 20.8075 23.6643 20.8539 24.0924 21.0312C24.5206 21.2085 24.8865 21.5088 25.1439 21.8941C25.4014 22.2794 25.5388 22.7324 25.5388 23.1957C25.5388 23.6591 25.4014 24.1121 25.1439 24.4974C24.8865 24.8827 24.5206 25.1829 24.0924 25.3602C23.6643 25.5376 23.1932 25.5839 22.7388 25.4935C22.2843 25.4031 21.8669 25.1799 21.5392 24.8522C21.3212 24.635 21.1482 24.3768 21.0301 24.0925C20.9121 23.8083 20.8513 23.5035 20.8513 23.1957C20.8513 22.8879 20.9121 22.5832 21.0301 22.2989C21.1482 22.0147 21.3212 21.7565 21.5392 21.5392ZM53.8048 24.4924C53.0819 23.8011 52.3348 23.0858 52.197 22.4821C52.0505 21.8368 52.4223 20.8414 52.7822 19.8767C53.2952 18.5019 53.8256 17.08 53.2361 15.8583C52.6356 14.6158 51.1766 14.1422 49.7656 13.6828C48.7998 13.3689 47.8023 13.0452 47.4031 12.5453C47.0039 12.0455 46.9033 10.9911 46.8103 9.97612C46.6703 8.50394 46.5314 6.98253 45.4584 6.12503C44.3855 5.26753 42.8816 5.46878 41.4203 5.66784C40.4053 5.80237 39.3553 5.94128 38.7658 5.658C38.1981 5.38347 37.6622 4.48987 37.1448 3.62472C36.3792 2.34722 35.5873 1.02487 34.23 0.716436C32.9175 0.418936 31.6608 1.248 30.4412 2.04862C29.5739 2.62503 28.677 3.21019 28 3.21019C27.323 3.21019 26.4261 2.62503 25.5588 2.05081C24.3392 1.25019 23.0781 0.422217 21.7656 0.718623C20.4083 1.02706 19.6164 2.3494 18.8508 3.6269C18.3334 4.49206 17.7975 5.38565 17.2298 5.66019C16.6403 5.94347 15.5892 5.80456 14.5753 5.67003C13.1141 5.47644 11.6036 5.27519 10.5372 6.12722C9.47078 6.97925 9.32969 8.50394 9.19406 9.97503C9.10109 10.99 9.00484 12.0389 8.60125 12.5442C8.19766 13.0496 7.20453 13.3678 6.23875 13.6817C4.82781 14.14 3.36875 14.6147 2.76828 15.8572C2.17875 17.0789 2.70922 18.5008 3.22219 19.8757C3.58203 20.8392 3.95391 21.8357 3.80734 22.481C3.66953 23.0847 2.9225 23.8 2.19953 24.4913C1.11781 25.526 0 26.5957 0 28C0 29.4044 1.11781 30.4741 2.19953 31.5088C2.9225 32.2 3.66953 32.9153 3.80734 33.5191C3.95391 34.1644 3.58203 35.1597 3.22219 36.1244C2.70922 37.4992 2.17875 38.9211 2.76828 40.1428C3.36875 41.3853 4.82781 41.8589 6.23438 42.3183C7.20016 42.6322 8.19766 42.956 8.59688 43.4558C8.99609 43.9557 9.09672 45.01 9.18969 46.025C9.32531 47.4961 9.46422 49.0175 10.5372 49.8728C11.6102 50.7282 13.1141 50.5236 14.5753 50.33C15.5903 50.1955 16.6403 50.0566 17.2298 50.3399C17.7975 50.6144 18.3334 51.508 18.8508 52.3732C19.6164 53.6507 20.4083 54.973 21.7656 55.2814C21.9484 55.3222 22.1351 55.3428 22.3223 55.3427C23.4325 55.3427 24.5098 54.6361 25.5544 53.9492C26.4217 53.3794 27.3186 52.7899 27.9956 52.7899C28.6727 52.7899 29.5695 53.3794 30.4369 53.9492C31.6564 54.7499 32.9164 55.5778 34.2256 55.2814C35.583 54.973 36.3748 53.6507 37.1405 52.3732C37.6578 51.508 38.1938 50.6144 38.7614 50.3399C39.3509 50.0566 40.402 50.1955 41.4159 50.33C42.8772 50.5236 44.3877 50.7249 45.4541 49.8728C46.5205 49.0208 46.6659 47.4961 46.8016 46.025C46.8945 45.01 46.9908 43.9611 47.3944 43.4558C47.798 42.9505 48.7911 42.6322 49.7569 42.3183C51.1678 41.86 52.6269 41.3853 53.2273 40.1428C53.8169 38.9211 53.2864 37.4992 52.7734 36.1244C52.4136 35.1608 52.0417 34.1644 52.1883 33.5191C52.3261 32.9153 53.0731 32.2 53.7961 31.5088C54.8822 30.4741 56 29.4044 56 28C56 26.5957 54.8822 25.526 53.8005 24.4913L53.8048 24.4924ZM52.6706 30.3242C51.7727 31.1839 50.8441 32.0743 50.598 33.156C50.342 34.2803 50.8014 35.5097 51.2444 36.6997C51.6381 37.7519 52.0439 38.8402 51.7584 39.4341C51.4631 40.0455 50.342 40.4097 49.2581 40.7619C48.0637 41.1513 46.8278 41.5527 46.1213 42.4364C45.4147 43.3202 45.2911 44.6239 45.1763 45.8796C45.0723 47.0083 44.9663 48.1764 44.4402 48.5953C43.9141 49.0142 42.7612 48.8567 41.6402 48.7047C40.3856 48.5385 39.0895 48.3667 38.0581 48.8633C37.0475 49.3511 36.3836 50.4591 35.7416 51.531C35.1531 52.5153 34.545 53.5292 33.8713 53.6824C33.2423 53.8257 32.2788 53.1913 31.3469 52.5788C30.2783 51.8766 29.1725 51.1503 28.0044 51.1503C26.8363 51.1503 25.7305 51.8766 24.6619 52.5788C23.73 53.1913 22.7653 53.8246 22.1375 53.6824C21.4637 53.5292 20.8556 52.5132 20.2672 51.531C19.6252 50.4591 18.9613 49.3511 17.9506 48.8633C17.4398 48.6172 16.8645 48.5352 16.2619 48.5352C15.6278 48.5506 14.9953 48.6073 14.3686 48.7047C13.2475 48.8535 12.0892 49.0066 11.5686 48.5953C11.048 48.1841 10.9375 47.0039 10.8281 45.8752C10.7188 44.625 10.5941 43.3213 9.88313 42.4375C9.17219 41.5538 7.94063 41.1469 6.74625 40.7575C5.66234 40.4053 4.54125 40.0411 4.24594 39.4297C3.96047 38.8391 4.36625 37.7508 4.76 36.6953C5.1975 35.5053 5.66234 34.276 5.40641 33.1516C5.16031 32.0677 4.23172 31.1828 3.33375 30.3199C2.50141 29.5313 1.64062 28.7033 1.64062 28C1.64062 27.2967 2.50141 26.4688 3.33375 25.6769C4.23172 24.8172 5.16031 23.9269 5.41187 22.8452C5.66781 21.7208 5.20844 20.4914 4.76547 19.3014C4.37172 18.2492 3.96594 17.161 4.25141 16.5671C4.54672 15.9557 5.67328 15.5914 6.75172 15.2392C7.94609 14.8499 9.18203 14.4485 9.88859 13.5647C10.5952 12.681 10.7188 11.3805 10.8281 10.1249C10.9375 8.99612 11.0381 7.828 11.5642 7.40909C12.0903 6.99019 13.2431 7.14769 14.3642 7.29972C15.6188 7.46597 16.9148 7.63769 17.9463 7.14112C18.9569 6.65331 19.6208 5.54534 20.2628 4.47347C20.8512 3.48909 21.4594 2.47519 22.1331 2.32206C22.762 2.17878 23.7256 2.81315 24.6575 3.42565C25.7261 4.12784 26.8319 4.85409 28 4.85409C29.1681 4.85409 30.2739 4.12784 31.3425 3.42565C32.2744 2.81315 33.238 2.17987 33.8669 2.32206C34.5406 2.47519 35.1488 3.49128 35.7372 4.47347C36.3792 5.54534 37.0431 6.65331 38.0538 7.14112C39.0852 7.63769 40.3823 7.46925 41.6358 7.29972C42.7569 7.15097 43.9152 6.99675 44.4358 7.40909C44.9564 7.82144 45.068 8.99612 45.1719 10.1249C45.2867 11.3805 45.4059 12.6788 46.1169 13.568C46.8278 14.4572 48.0594 14.8532 49.2537 15.2425C50.3377 15.5947 51.4587 15.9589 51.7541 16.5703C52.0395 17.161 51.6338 18.2492 51.24 19.3047C50.797 20.4947 50.3377 21.7241 50.5936 22.8485C50.8397 23.9324 51.7683 24.8172 52.6662 25.6802C53.4986 26.4688 54.3594 27.2967 54.3594 28C54.3594 28.7033 53.4986 29.5313 52.6662 30.3232L52.6706 30.3242ZM28 8.43831C17.2134 8.43831 8.43828 17.2135 8.43828 28C8.43828 38.7866 17.2134 47.5617 28 47.5617C38.7866 47.5617 47.5617 38.7866 47.5617 28C47.5617 17.2135 38.7866 8.43831 28 8.43831ZM28 45.9211C18.118 45.9211 10.0789 37.8821 10.0789 28C10.0789 18.118 18.118 10.0789 28 10.0789C37.882 10.0789 45.9211 18.118 45.9211 28C45.9211 37.8821 37.882 45.9211 28 45.9211ZM29.9873 29.9874C29.4302 30.5444 29.0507 31.2542 28.8969 32.0269C28.7431 32.7997 28.822 33.6007 29.1235 34.3286C29.4249 35.0565 29.9355 35.6787 30.5906 36.1164C31.2457 36.5542 32.0159 36.7878 32.8038 36.7878C33.5916 36.7878 34.3618 36.5542 35.0169 36.1164C35.672 35.6787 36.1826 35.0565 36.4841 34.3286C36.7855 33.6007 36.8644 32.7997 36.7106 32.0269C36.5568 31.2542 36.1773 30.5444 35.6202 29.9874C34.8727 29.2413 33.8598 28.8223 32.8038 28.8223C31.7477 28.8223 30.7348 29.2413 29.9873 29.9874ZM34.4608 34.4608C34.1331 34.7885 33.7157 35.0117 33.2612 35.1021C32.8068 35.1925 32.3357 35.1462 31.9076 34.9688C31.4794 34.7915 31.1135 34.4912 30.8561 34.106C30.5986 33.7207 30.4612 33.2677 30.4612 32.8043C30.4612 32.3409 30.5986 31.888 30.8561 31.5027C31.1135 31.1174 31.4794 30.8171 31.9076 30.6398C32.3357 30.4625 32.8068 30.4161 33.2612 30.5066C33.7157 30.597 34.1331 30.8202 34.4608 31.1478C34.8995 31.5875 35.1459 32.1832 35.1459 32.8043C35.1459 33.4254 34.8995 34.0212 34.4608 34.4608Z" fill="#0A81D1"/>
</g>
<defs>
<clipPath id="clip0_1047_1492">
<rect width="56" height="56" fill="white"/>
</clipPath>
</defs>
</svg>
