<svg width="1440" height="362" viewBox="0 0 1440 362" fill="none" xmlns="http://www.w3.org/2000/svg">
<g clip-path="url(#clip0_1047_1468)">
<rect width="1440" height="362" fill="white"/>
<rect width="1440" height="362" rx="24" fill="white" fill-opacity="0.05"/>
<rect x="70" y="187.442" width="328.178" height="92" rx="24" transform="rotate(-1.5 70 187.442)" fill="white"/>
<path d="M900 57C900 43.7452 910.745 33 924 33H1110C1123.25 33 1134 43.7452 1134 57V313C1134 326.255 1123.25 337 1110 337H924C910.745 337 900 326.255 900 313V57Z" fill="#0A81D1" fill-opacity="0.8"/>
<path d="M126.868 136.388L126.91 138.004C126.978 140.597 126.687 142.934 126.038 145.014C125.39 147.094 124.444 148.877 123.201 150.364C121.958 151.834 120.456 152.975 118.695 153.787C116.95 154.599 115 155.033 112.845 155.089C110.705 155.145 108.734 154.814 106.934 154.095C105.149 153.376 103.589 152.315 102.255 150.912C100.921 149.493 99.867 147.763 99.0945 145.72C98.3377 143.676 97.9253 141.358 97.8574 138.765L97.8151 137.149C97.7467 134.54 98.0372 132.204 98.6866 130.139C99.3354 128.059 100.281 126.276 101.524 124.789C102.782 123.303 104.284 122.154 106.029 121.342C107.79 120.53 109.74 120.096 111.88 120.04C114.035 119.984 116.006 120.315 117.791 121.034C119.591 121.753 121.151 122.822 122.47 124.241C123.804 125.66 124.85 127.391 125.607 129.434C126.379 131.461 126.799 133.779 126.868 136.388ZM119.811 138.19L119.767 136.527C119.72 134.715 119.514 133.126 119.15 131.76C118.786 130.394 118.272 129.251 117.607 128.331C116.942 127.41 116.142 126.728 115.208 126.283C114.274 125.823 113.214 125.609 112.026 125.64C110.839 125.671 109.791 125.941 108.883 126.449C107.989 126.941 107.234 127.664 106.618 128.618C106.018 129.572 105.572 130.74 105.28 132.123C104.988 133.506 104.866 135.104 104.913 136.916L104.957 138.579C105.004 140.376 105.209 141.964 105.574 143.346C105.938 144.712 106.452 145.863 107.118 146.799C107.783 147.719 108.582 148.41 109.517 148.87C110.451 149.33 111.511 149.544 112.699 149.513C113.886 149.482 114.934 149.212 115.842 148.704C116.751 148.196 117.506 147.465 118.106 146.511C118.706 145.542 119.152 144.366 119.444 142.983C119.736 141.584 119.858 139.987 119.811 138.19ZM146.81 147.659L146.305 128.376L153.053 128.2L153.717 153.55L147.367 153.716L146.81 147.659ZM147.424 142.438L149.414 142.339C149.458 144.026 149.304 145.6 148.951 147.063C148.599 148.511 148.046 149.775 147.292 150.858C146.539 151.925 145.576 152.771 144.405 153.395C143.233 154.004 141.842 154.33 140.234 154.372C139 154.404 137.855 154.263 136.799 153.946C135.759 153.614 134.854 153.083 134.085 152.353C133.331 151.607 132.727 150.646 132.274 149.469C131.837 148.277 131.596 146.838 131.552 145.151L131.123 128.774L137.871 128.597L138.301 145.021C138.32 145.771 138.423 146.401 138.608 146.912C138.809 147.423 139.078 147.838 139.414 148.157C139.751 148.477 140.14 148.701 140.581 148.83C141.037 148.959 141.539 149.016 142.086 149.002C143.476 148.965 144.562 148.655 145.344 148.072C146.141 147.489 146.691 146.708 146.994 145.731C147.312 144.738 147.455 143.64 147.424 142.438ZM165.1 133.417L165.619 153.239L158.871 153.415L158.207 128.065L164.557 127.898L165.1 133.417ZM172.589 127.524L172.635 133.783C172.306 133.744 171.907 133.716 171.437 133.697C170.983 133.662 170.569 133.649 170.194 133.659C169.241 133.684 168.416 133.831 167.72 134.099C167.039 134.351 166.47 134.718 166.014 135.199C165.573 135.679 165.245 136.258 165.028 136.936C164.827 137.613 164.722 138.382 164.713 139.242L163.343 138.856C163.3 137.216 163.425 135.704 163.717 134.321C164.008 132.922 164.453 131.699 165.051 130.652C165.664 129.604 166.424 128.787 167.331 128.201C168.238 127.614 169.285 127.306 170.472 127.274C170.847 127.265 171.23 127.286 171.623 127.338C172.014 127.375 172.336 127.437 172.589 127.524ZM107.857 212.646L108.751 246.759L101.722 246.943L100.828 212.83L107.857 212.646ZM121.828 226.863L121.972 232.346L106.461 232.752L106.318 227.269L121.828 226.863ZM123.086 212.247L123.231 217.753L106.08 218.202L105.936 212.696L123.086 212.247ZM138.799 246.441C136.831 246.493 135.058 246.227 133.48 245.643C131.901 245.043 130.55 244.196 129.427 243.1C128.32 242.003 127.458 240.721 126.842 239.252C126.224 237.767 125.894 236.182 125.849 234.495L125.825 233.558C125.775 231.637 126.002 229.872 126.507 228.265C127.012 226.657 127.757 225.254 128.741 224.056C129.741 222.858 130.968 221.927 132.419 221.264C133.871 220.585 135.518 220.221 137.361 220.173C139.158 220.126 140.759 220.381 142.164 220.938C143.57 221.495 144.756 222.308 145.721 223.377C146.703 224.446 147.456 225.739 147.98 227.257C148.504 228.759 148.79 230.44 148.839 232.299L148.913 235.11L128.763 235.638L128.645 231.139L142.164 230.785L142.151 230.27C142.126 229.333 141.932 228.502 141.57 227.776C141.222 227.035 140.707 226.455 140.023 226.035C139.34 225.615 138.476 225.419 137.429 225.447C136.539 225.47 135.778 225.685 135.148 226.092C134.518 226.5 134.009 227.06 133.621 227.774C133.249 228.487 132.974 229.322 132.796 230.28C132.633 231.222 132.567 232.256 132.596 233.38L132.621 234.318C132.647 235.333 132.812 236.266 133.116 237.118C133.435 237.969 133.869 238.701 134.416 239.311C134.979 239.922 135.648 240.389 136.422 240.712C137.212 241.036 138.099 241.184 139.083 241.159C140.301 241.127 141.428 240.863 142.462 240.367C143.511 239.855 144.406 239.104 145.146 238.116L148.52 241.591C148.009 242.371 147.301 243.124 146.398 243.851C145.511 244.577 144.433 245.184 143.164 245.671C141.894 246.141 140.439 246.398 138.799 246.441ZM166.565 239.525L166.27 228.232C166.248 227.419 166.097 226.728 165.817 226.157C165.536 225.57 165.11 225.12 164.539 224.807C163.984 224.493 163.269 224.348 162.394 224.371C161.644 224.39 160.999 224.54 160.46 224.82C159.919 225.084 159.507 225.462 159.223 225.954C158.939 226.431 158.805 226.989 158.822 227.629L152.074 227.806C152.046 226.728 152.269 225.699 152.743 224.717C153.218 223.736 153.922 222.865 154.855 222.106C155.789 221.332 156.906 220.716 158.207 220.26C159.523 219.804 161.002 219.554 162.642 219.511C164.61 219.46 166.368 219.742 167.916 220.358C169.464 220.974 170.692 221.926 171.601 223.215C172.526 224.504 173.014 226.132 173.065 228.101L173.349 238.948C173.386 240.339 173.502 241.476 173.697 242.362C173.892 243.233 174.161 243.991 174.507 244.639L174.517 245.037L167.699 245.216C167.353 244.537 167.081 243.684 166.882 242.658C166.698 241.616 166.593 240.571 166.565 239.525ZM167.201 229.778L167.348 233.596L163.576 233.695C162.685 233.718 161.915 233.84 161.264 234.06C160.614 234.28 160.082 234.583 159.67 234.969C159.258 235.339 158.957 235.769 158.766 236.259C158.592 236.748 158.512 237.282 158.527 237.859C158.542 238.437 158.688 238.957 158.966 239.419C159.244 239.865 159.636 240.214 160.143 240.466C160.649 240.703 161.238 240.813 161.91 240.795C162.925 240.769 163.802 240.543 164.541 240.117C165.28 239.691 165.845 239.176 166.236 238.572C166.642 237.967 166.846 237.399 166.847 236.868L168.703 239.68C168.47 240.327 168.144 240.999 167.724 241.698C167.321 242.396 166.799 243.059 166.159 243.685C165.518 244.296 164.742 244.808 163.831 245.223C162.919 245.622 161.831 245.838 160.565 245.871C158.957 245.913 157.488 245.631 156.159 245.025C154.845 244.403 153.791 243.532 152.996 242.412C152.216 241.276 151.806 239.974 151.768 238.505C151.733 237.178 151.952 235.992 152.425 234.948C152.898 233.904 153.609 233.018 154.559 232.29C155.525 231.545 156.737 230.974 158.195 230.577C159.654 230.163 161.352 229.931 163.288 229.88L167.201 229.778ZM190.465 219.251L190.59 224.031L175.829 224.418L175.704 219.638L190.465 219.251ZM179.195 213.287L185.943 213.11L186.571 237.078C186.59 237.812 186.698 238.372 186.896 238.758C187.109 239.143 187.413 239.408 187.808 239.554C188.202 239.685 188.696 239.742 189.289 239.727C189.711 239.716 190.086 239.69 190.413 239.65C190.755 239.595 191.043 239.54 191.276 239.487L191.429 244.454C190.856 244.656 190.236 244.821 189.567 244.948C188.898 245.075 188.158 245.149 187.345 245.17C185.861 245.209 184.559 245.001 183.437 244.546C182.331 244.074 181.466 243.3 180.844 242.222C180.222 241.144 179.887 239.715 179.841 237.934L179.195 213.287ZM209.807 238.041L209.302 218.758L216.05 218.581L216.714 243.932L210.364 244.098L209.807 238.041ZM210.421 232.82L212.411 232.721C212.455 234.408 212.301 235.982 211.948 237.445C211.596 238.892 211.043 240.157 210.289 241.24C209.536 242.307 208.573 243.153 207.402 243.777C206.23 244.386 204.839 244.712 203.23 244.754C201.997 244.786 200.852 244.644 199.796 244.328C198.756 243.996 197.851 243.465 197.082 242.735C196.328 241.989 195.724 241.027 195.271 239.851C194.834 238.659 194.593 237.22 194.549 235.533L194.12 219.156L200.867 218.979L201.298 235.403C201.317 236.153 201.42 236.783 201.605 237.294C201.806 237.805 202.075 238.22 202.411 238.539C202.748 238.858 203.137 239.083 203.578 239.212C204.034 239.341 204.536 239.398 205.083 239.383C206.473 239.347 207.559 239.037 208.341 238.454C209.138 237.871 209.688 237.09 209.991 236.113C210.309 235.12 210.452 234.022 210.421 232.82ZM228.097 223.799L228.616 243.62L221.868 243.797L221.204 218.446L227.554 218.28L228.097 223.799ZM235.586 217.906L235.632 224.164C235.303 224.126 234.904 224.098 234.434 224.079C233.98 224.044 233.566 224.031 233.191 224.041C232.238 224.066 231.413 224.212 230.717 224.481C230.036 224.733 229.467 225.1 229.011 225.58C228.57 226.061 228.241 226.64 228.025 227.318C227.824 227.995 227.719 228.764 227.71 229.624L226.34 229.238C226.297 227.598 226.422 226.086 226.714 224.703C227.005 223.304 227.45 222.081 228.048 221.034C228.661 219.986 229.421 219.169 230.328 218.583C231.235 217.996 232.282 217.687 233.469 217.656C233.844 217.647 234.227 217.668 234.619 217.72C235.011 217.757 235.333 217.819 235.586 217.906ZM250.652 243.512C248.684 243.564 246.91 243.298 245.332 242.714C243.753 242.114 242.403 241.267 241.28 240.171C240.173 239.074 239.311 237.792 238.694 236.323C238.077 234.839 237.746 233.253 237.702 231.566L237.677 230.629C237.627 228.708 237.854 226.943 238.359 225.336C238.864 223.728 239.609 222.325 240.594 221.127C241.594 219.929 242.82 218.998 244.272 218.335C245.723 217.656 247.37 217.292 249.214 217.244C251.01 217.197 252.611 217.452 254.017 218.009C255.422 218.566 256.608 219.379 257.574 220.448C258.555 221.517 259.308 222.81 259.832 224.328C260.356 225.83 260.643 227.511 260.691 229.37L260.765 232.181L240.615 232.709L240.498 228.21L254.016 227.856L254.003 227.341C253.978 226.404 253.785 225.573 253.422 224.847C253.074 224.106 252.559 223.526 251.876 223.106C251.193 222.686 250.328 222.49 249.281 222.518C248.391 222.541 247.631 222.756 247.001 223.163C246.37 223.571 245.861 224.131 245.474 224.845C245.102 225.558 244.827 226.393 244.648 227.351C244.486 228.294 244.419 229.327 244.448 230.451L244.473 231.389C244.499 232.404 244.665 233.337 244.968 234.189C245.287 235.04 245.721 235.772 246.268 236.382C246.831 236.993 247.5 237.46 248.274 237.784C249.064 238.107 249.951 238.255 250.935 238.23C252.154 238.198 253.28 237.934 254.314 237.438C255.364 236.926 256.258 236.176 256.998 235.187L260.372 238.662C259.861 239.442 259.154 240.195 258.251 240.922C257.363 241.648 256.285 242.255 255.016 242.742C253.746 243.212 252.292 243.469 250.652 243.512ZM279.711 236.749L278.914 206.291L285.708 206.113L286.651 242.101L280.535 242.261L279.711 236.749ZM263.506 230.328L263.493 229.836C263.443 227.899 263.615 226.136 264.011 224.547C264.407 222.942 265.012 221.559 265.825 220.396C266.639 219.234 267.654 218.324 268.872 217.667C270.09 217.01 271.487 216.661 273.065 216.62C274.549 216.581 275.853 216.859 276.979 217.455C278.12 218.05 279.096 218.916 279.907 220.051C280.733 221.17 281.409 222.505 281.934 224.054C282.459 225.588 282.855 227.273 283.122 229.111L283.15 230.188C282.978 231.959 282.669 233.608 282.225 235.136C281.78 236.664 281.174 238.008 280.408 239.169C279.656 240.314 278.726 241.214 277.618 241.868C276.51 242.523 275.206 242.869 273.706 242.909C272.129 242.95 270.715 242.667 269.464 242.058C268.229 241.45 267.174 240.579 266.301 239.445C265.442 238.311 264.774 236.969 264.296 235.418C263.818 233.867 263.555 232.171 263.506 230.328ZM270.241 229.659L270.254 230.151C270.281 231.197 270.385 232.172 270.565 233.073C270.76 233.975 271.055 234.772 271.448 235.465C271.857 236.142 272.371 236.668 272.99 237.043C273.625 237.401 274.387 237.569 275.277 237.545C276.433 237.515 277.379 237.232 278.116 236.697C278.851 236.147 279.402 235.405 279.769 234.474C280.151 233.541 280.357 232.473 280.388 231.269L280.308 228.2C280.235 227.217 280.072 226.338 279.817 225.563C279.577 224.772 279.232 224.101 278.779 223.55C278.343 222.999 277.8 222.576 277.152 222.28C276.519 221.984 275.773 221.847 274.914 221.87C274.039 221.893 273.295 222.115 272.681 222.538C272.066 222.945 271.572 223.497 271.2 224.194C270.843 224.891 270.583 225.711 270.42 226.653C270.273 227.579 270.213 228.581 270.241 229.659Z" fill="black"/>
<rect x="449" y="101" width="112" height="112" rx="24" fill="white"/>
<path d="M498.865 152.516C497.544 153.459 496.706 154.402 496.351 155.246C495.984 155.997 495.789 156.776 495.766 157.784H504.44V155.432H498.909C499.066 155.208 499.259 154.971 499.489 154.773C499.719 154.575 500.146 154.27 500.77 153.828L501.767 153.128C502.607 152.534 503.211 152 503.578 151.517C504.138 150.789 504.418 149.959 504.418 149.022C504.418 147.8 504.021 146.818 503.229 146.076C502.437 145.334 501.371 144.964 500.031 144.964C498.335 144.964 497.155 145.609 496.491 146.872C496.142 147.535 495.947 148.376 495.906 149.496H498.324C498.353 148.824 498.446 148.255 498.603 147.928C498.877 147.364 499.392 147.075 500.149 147.075C500.701 147.075 501.126 147.249 501.423 147.604C501.72 147.959 501.868 148.403 501.868 148.938C501.868 149.596 501.609 150.2 501.091 150.753C500.754 151.108 500.012 151.695 498.865 152.516ZM514.52 153.08H513.064V145.128H510.275L505.672 152.786V154.872H510.6V157.784H513.064V154.872H514.52V153.08ZM510.6 153.08H507.474L510.6 147.561V153.08Z" fill="#0A81D1"/>
<path d="M496.152 162.152H494.36V160.248H493.128V165.288H494.36V162.936H496.152V165.288H497.16V160.248H496.152V162.152Z" fill="#0A81D1"/>
<path d="M500.404 160.161C499.695 160.161 499.153 160.354 498.779 160.74C498.276 161.195 498.025 161.877 498.025 162.786C498.025 163.676 498.276 164.358 498.779 164.831C499.153 165.217 499.695 165.41 500.404 165.41C501.113 165.41 501.654 165.217 502.029 164.831C502.529 164.358 502.779 163.676 502.779 162.786C502.779 161.877 502.529 161.195 502.029 160.74C501.654 160.354 501.112 160.161 500.404 160.161ZM501.381 164.077C501.14 164.38 500.814 164.532 500.404 164.532C499.993 164.532 499.666 164.38 499.421 164.077C499.177 163.775 499.055 163.344 499.055 162.786C499.055 162.227 499.177 161.796 499.421 161.493C499.666 161.191 499.993 161.039 500.404 161.039C500.814 161.039 501.14 161.191 501.381 161.495C501.622 161.799 501.743 162.229 501.743 162.786C501.743 163.344 501.622 163.775 501.381 164.077ZM506.568 163.358C506.568 163.699 506.492 163.948 506.412 164.105C506.286 164.382 505.997 164.521 505.579 164.521C505.159 164.521 504.898 164.382 504.773 164.105C504.692 163.948 504.664 163.699 504.664 163.358V160.248H503.544V163.361C503.544 163.888 503.638 164.298 503.802 164.592C504.109 165.13 504.697 165.4 505.555 165.4C506.412 165.4 506.954 165.13 507.258 164.592C507.422 164.298 507.464 163.888 507.464 163.361V160.248H506.568V163.358ZM512.422 164.865C512.404 164.784 512.392 164.63 512.392 164.404V164.071C512.392 163.723 512.344 163.465 512.248 163.295C512.153 163.126 511.991 162.995 511.762 162.903C512.036 162.809 512.232 162.648 512.351 162.42C512.47 162.193 512.529 161.961 512.529 161.726C512.529 161.53 512.498 161.357 512.437 161.204C512.376 161.052 512.293 160.913 512.188 160.787C512.061 160.634 511.906 160.487 511.724 160.408C511.541 160.33 511.28 160.248 510.941 160.248H508.472V165.288H509.592V163.272H510.594C510.882 163.272 511.079 163.352 511.184 163.458C511.289 163.563 511.344 163.788 511.348 164.104L511.355 164.572C511.357 164.718 511.372 164.872 511.398 165.011C511.412 165.078 511.434 165.176 511.466 165.288H512.616V165.147C512.504 165.087 512.449 164.992 512.422 164.865ZM511.195 162.472C511.084 162.526 510.918 162.6 510.697 162.6H509.592V161.144H510.726C510.939 161.144 511.098 161.188 511.205 161.246C511.394 161.35 511.489 161.582 511.489 161.883C511.489 162.161 511.391 162.378 511.195 162.472ZM516.947 162.809C516.756 162.659 516.471 162.539 516.089 162.449L515.219 162.244C514.883 162.165 514.664 162.097 514.56 162.039C514.399 161.951 514.319 161.819 514.319 161.642C514.319 161.449 514.4 161.298 514.563 161.191C514.727 161.083 514.945 161.029 515.219 161.029C515.465 161.029 515.671 161.084 515.836 161.167C516.084 161.293 516.218 161.48 516.236 161.816H517.232C517.214 161.256 517.018 160.874 516.645 160.597C516.271 160.32 515.82 160.175 515.291 160.175C514.657 160.175 514.177 160.318 513.85 160.612C513.523 160.906 513.36 161.273 513.36 161.717C513.36 162.204 513.527 162.561 513.861 162.79C514.059 162.927 514.421 163.053 514.949 163.169L515.486 163.287C515.8 163.354 516.029 163.431 516.174 163.519C516.319 163.609 516.391 163.735 516.391 163.899C516.391 164.179 516.243 164.371 515.948 164.474C515.792 164.528 515.59 164.555 515.34 164.555C514.923 164.555 514.629 164.443 514.457 164.238C514.363 164.126 514.3 163.944 514.268 163.72H513.279C513.279 164.28 513.466 164.652 513.84 164.947C514.214 165.242 514.728 165.394 515.381 165.394C516.02 165.394 516.515 165.247 516.865 164.948C517.215 164.648 517.39 164.273 517.39 163.82C517.39 163.379 517.243 163.042 516.947 162.809Z" fill="#0A81D1"/>
<path d="M485.892 165.82C484.042 165.82 482.543 164.32 482.543 162.471V155.203C482.543 153.354 484.042 151.855 485.892 151.855C487.741 151.855 489.24 153.354 489.24 155.203V162.471C489.24 164.32 487.741 165.82 485.892 165.82ZM524.264 165.82C522.415 165.82 520.915 164.32 520.915 162.471V155.203C520.915 153.354 522.415 151.855 524.264 151.855C526.113 151.855 527.613 153.354 527.613 155.203V162.471C527.613 164.32 526.113 165.82 524.264 165.82Z" stroke="#0A81D1" stroke-width="2" stroke-miterlimit="10" stroke-linecap="round" stroke-linejoin="round"/>
<path d="M522.626 165.391V168.193C522.626 175.445 516.746 181.324 509.494 181.324H505.08M487.56 152.188V149.686C487.56 140.003 495.41 132.153 505.093 132.153C514.776 132.153 522.625 140.003 522.625 149.686V152.283" stroke="#0A81D1" stroke-width="2" stroke-miterlimit="10" stroke-linecap="round" stroke-linejoin="round"/>
<path d="M506.731 178.359H503.167C502.349 178.359 501.685 179.022 501.685 179.841C501.685 180.66 502.349 181.324 503.167 181.324H506.731C507.55 181.324 508.214 180.66 508.214 179.841C508.214 179.022 507.55 178.359 506.731 178.359Z" stroke="#0A81D1" stroke-width="2" stroke-miterlimit="10" stroke-linecap="round" stroke-linejoin="round"/>
<path d="M457.468 247V245.659C457.93 245.245 458.449 244.783 459.025 244.273C459.601 243.757 460.174 243.22 460.744 242.662C461.32 242.098 461.848 241.54 462.328 240.988C462.808 240.436 463.195 239.914 463.489 239.422C463.783 238.924 463.93 238.489 463.93 238.117C463.93 237.673 463.822 237.268 463.606 236.902C463.39 236.53 463.099 236.233 462.733 236.011C462.373 235.789 461.971 235.678 461.527 235.678C461.083 235.678 460.675 235.789 460.303 236.011C459.937 236.233 459.643 236.53 459.421 236.902C459.205 237.268 459.097 237.673 459.097 238.117H457.585C457.585 237.379 457.765 236.713 458.125 236.119C458.485 235.519 458.962 235.045 459.556 234.697C460.15 234.343 460.807 234.166 461.527 234.166C462.247 234.166 462.901 234.343 463.489 234.697C464.083 235.051 464.557 235.528 464.911 236.128C465.265 236.722 465.442 237.385 465.442 238.117C465.442 238.537 465.34 238.99 465.136 239.476C464.932 239.956 464.653 240.451 464.299 240.961C463.945 241.471 463.543 241.987 463.093 242.509C462.643 243.025 462.169 243.535 461.671 244.039C461.173 244.543 460.678 245.026 460.186 245.488H465.604V247H457.468ZM472.273 247V243.598H466.855V242.068L471.895 234.4H473.785V242.086H475.036V243.598H473.785V247H472.273ZM468.628 242.068L472.273 242.086L472.246 236.524L468.628 242.068ZM481.996 234.4L478.351 248.008H476.839L480.484 234.4H481.996ZM483.908 247L490.298 235.912H483.071V234.4H492.044V235.912L485.636 247H483.908ZM504.002 244.624L505.352 245.353C504.944 245.923 504.425 246.379 503.795 246.721C503.171 247.063 502.493 247.234 501.761 247.234C500.933 247.234 500.177 247.021 499.493 246.595C498.815 246.169 498.272 245.599 497.864 244.885C497.462 244.165 497.261 243.37 497.261 242.5C497.261 241.84 497.378 241.225 497.612 240.655C497.846 240.079 498.167 239.575 498.575 239.143C498.989 238.705 499.469 238.363 500.015 238.117C500.561 237.871 501.143 237.748 501.761 237.748C502.493 237.748 503.171 237.919 503.795 238.261C504.425 238.603 504.944 239.062 505.352 239.638L504.002 240.367C503.714 240.013 503.372 239.74 502.976 239.548C502.58 239.356 502.175 239.26 501.761 239.26C501.203 239.26 500.696 239.41 500.24 239.71C499.79 240.004 499.433 240.397 499.169 240.889C498.905 241.381 498.773 241.918 498.773 242.5C498.773 243.082 498.905 243.619 499.169 244.111C499.439 244.597 499.799 244.987 500.249 245.281C500.705 245.575 501.209 245.722 501.761 245.722C502.205 245.722 502.622 245.62 503.012 245.416C503.402 245.212 503.732 244.948 504.002 244.624ZM506.493 243.58V238H508.005V243.247C508.005 243.703 508.116 244.117 508.338 244.489C508.56 244.861 508.857 245.158 509.229 245.38C509.607 245.596 510.021 245.704 510.471 245.704C510.927 245.704 511.338 245.596 511.704 245.38C512.076 245.158 512.373 244.861 512.595 244.489C512.817 244.117 512.928 243.703 512.928 243.247V238H514.44L514.449 247H512.937L512.928 245.857C512.61 246.277 512.208 246.613 511.722 246.865C511.236 247.111 510.711 247.234 510.147 247.234C509.475 247.234 508.86 247.072 508.302 246.748C507.75 246.418 507.309 245.977 506.979 245.425C506.655 244.873 506.493 244.258 506.493 243.58ZM519.003 247.171C518.517 247.153 518.043 247.063 517.581 246.901C517.125 246.733 516.723 246.508 516.375 246.226C516.033 245.938 515.784 245.608 515.628 245.236L516.924 244.678C517.014 244.882 517.176 245.074 517.41 245.254C517.644 245.434 517.914 245.578 518.22 245.686C518.526 245.794 518.835 245.848 519.147 245.848C519.477 245.848 519.786 245.797 520.074 245.695C520.362 245.593 520.596 245.443 520.776 245.245C520.962 245.041 521.055 244.798 521.055 244.516C521.055 244.216 520.953 243.982 520.749 243.814C520.551 243.64 520.299 243.505 519.993 243.409C519.693 243.307 519.387 243.211 519.075 243.121C518.457 242.965 517.905 242.779 517.419 242.563C516.933 242.341 516.549 242.062 516.267 241.726C515.991 241.384 515.853 240.949 515.853 240.421C515.853 239.863 516.006 239.38 516.312 238.972C516.624 238.564 517.032 238.249 517.536 238.027C518.04 237.805 518.58 237.694 519.156 237.694C519.882 237.694 520.545 237.85 521.145 238.162C521.745 238.474 522.192 238.897 522.486 239.431L521.271 240.142C521.169 239.926 521.013 239.737 520.803 239.575C520.593 239.407 520.353 239.275 520.083 239.179C519.813 239.083 519.537 239.032 519.255 239.026C518.907 239.014 518.58 239.059 518.274 239.161C517.974 239.263 517.731 239.419 517.545 239.629C517.365 239.833 517.275 240.088 517.275 240.394C517.275 240.694 517.371 240.922 517.563 241.078C517.761 241.234 518.016 241.36 518.328 241.456C518.646 241.546 518.991 241.651 519.363 241.771C519.909 241.945 520.419 242.146 520.893 242.374C521.367 242.602 521.748 242.887 522.036 243.229C522.33 243.571 522.474 243.994 522.468 244.498C522.468 245.05 522.303 245.533 521.973 245.947C521.643 246.355 521.214 246.667 520.686 246.883C520.164 247.099 519.603 247.195 519.003 247.171ZM528.672 239.512H526.629L526.62 247H525.108L525.117 239.512H523.569V238H525.117L525.108 235.174H526.62L526.629 238H528.672V239.512ZM534.017 247.234C533.189 247.234 532.433 247.021 531.749 246.595C531.071 246.169 530.528 245.599 530.12 244.885C529.718 244.165 529.517 243.37 529.517 242.5C529.517 241.84 529.634 241.225 529.868 240.655C530.102 240.079 530.423 239.575 530.831 239.143C531.245 238.705 531.725 238.363 532.271 238.117C532.817 237.871 533.399 237.748 534.017 237.748C534.845 237.748 535.598 237.961 536.276 238.387C536.96 238.813 537.503 239.386 537.905 240.106C538.313 240.826 538.517 241.624 538.517 242.5C538.517 243.154 538.4 243.766 538.166 244.336C537.932 244.906 537.608 245.41 537.194 245.848C536.786 246.28 536.309 246.619 535.763 246.865C535.223 247.111 534.641 247.234 534.017 247.234ZM534.017 245.722C534.581 245.722 535.088 245.575 535.538 245.281C535.994 244.981 536.351 244.588 536.609 244.102C536.873 243.61 537.005 243.076 537.005 242.5C537.005 241.912 536.87 241.372 536.6 240.88C536.336 240.388 535.979 239.995 535.529 239.701C535.079 239.407 534.575 239.26 534.017 239.26C533.453 239.26 532.946 239.41 532.496 239.71C532.046 240.004 531.689 240.397 531.425 240.889C531.161 241.381 531.029 241.918 531.029 242.5C531.029 243.1 531.164 243.646 531.434 244.138C531.704 244.624 532.067 245.011 532.523 245.299C532.979 245.581 533.477 245.722 534.017 245.722ZM540.006 247V238H541.518V239.125C541.836 238.705 542.235 238.372 542.715 238.126C543.201 237.874 543.729 237.748 544.299 237.748C544.965 237.748 545.574 237.91 546.126 238.234C546.678 238.558 547.113 238.987 547.431 239.521C547.749 238.987 548.181 238.558 548.727 238.234C549.279 237.91 549.885 237.748 550.545 237.748C551.223 237.748 551.838 237.913 552.39 238.243C552.942 238.567 553.38 239.005 553.704 239.557C554.034 240.109 554.199 240.724 554.199 241.402V247H552.687V241.762C552.687 241.318 552.579 240.907 552.363 240.529C552.147 240.151 551.856 239.848 551.49 239.62C551.124 239.392 550.719 239.278 550.275 239.278C549.831 239.278 549.426 239.386 549.06 239.602C548.694 239.812 548.403 240.106 548.187 240.484C547.971 240.856 547.863 241.282 547.863 241.762V247H546.351V241.762C546.351 241.282 546.243 240.856 546.027 240.484C545.811 240.106 545.517 239.812 545.145 239.602C544.779 239.386 544.374 239.278 543.93 239.278C543.492 239.278 543.087 239.392 542.715 239.62C542.349 239.848 542.058 240.151 541.842 240.529C541.626 240.907 541.518 241.318 541.518 241.762V247H540.006ZM559.786 247.234C558.958 247.234 558.202 247.021 557.518 246.595C556.84 246.169 556.297 245.599 555.889 244.885C555.487 244.165 555.286 243.37 555.286 242.5C555.286 241.84 555.403 241.225 555.637 240.655C555.871 240.079 556.192 239.575 556.6 239.143C557.014 238.705 557.494 238.363 558.04 238.117C558.586 237.871 559.168 237.748 559.786 237.748C560.464 237.748 561.085 237.886 561.649 238.162C562.219 238.432 562.705 238.81 563.107 239.296C563.515 239.782 563.818 240.346 564.016 240.988C564.22 241.63 564.295 242.317 564.241 243.049H556.897C556.969 243.559 557.137 244.015 557.401 244.417C557.665 244.813 558.001 245.128 558.409 245.362C558.823 245.596 559.282 245.716 559.786 245.722C560.326 245.722 560.815 245.584 561.253 245.308C561.691 245.026 562.045 244.642 562.315 244.156L563.854 244.516C563.494 245.314 562.951 245.968 562.225 246.478C561.499 246.982 560.686 247.234 559.786 247.234ZM556.852 241.861H562.72C562.672 241.357 562.51 240.898 562.234 240.484C561.958 240.064 561.607 239.728 561.181 239.476C560.755 239.224 560.29 239.098 559.786 239.098C559.282 239.098 558.82 239.221 558.4 239.467C557.98 239.713 557.632 240.046 557.356 240.466C557.086 240.88 556.918 241.345 556.852 241.861ZM565.758 247V238H567.27V239.125C567.588 238.705 567.99 238.372 568.476 238.126C568.962 237.874 569.49 237.748 570.06 237.748C570.408 237.748 570.744 237.793 571.068 237.883L570.456 239.395C570.21 239.317 569.97 239.278 569.736 239.278C569.286 239.278 568.872 239.389 568.494 239.611C568.122 239.827 567.825 240.121 567.603 240.493C567.381 240.865 567.27 241.279 567.27 241.735V247H565.758ZM487.204 271.171C486.718 271.153 486.244 271.063 485.782 270.901C485.326 270.733 484.924 270.508 484.576 270.226C484.234 269.938 483.985 269.608 483.829 269.236L485.125 268.678C485.215 268.882 485.377 269.074 485.611 269.254C485.845 269.434 486.115 269.578 486.421 269.686C486.727 269.794 487.036 269.848 487.348 269.848C487.678 269.848 487.987 269.797 488.275 269.695C488.563 269.593 488.797 269.443 488.977 269.245C489.163 269.041 489.256 268.798 489.256 268.516C489.256 268.216 489.154 267.982 488.95 267.814C488.752 267.64 488.5 267.505 488.194 267.409C487.894 267.307 487.588 267.211 487.276 267.121C486.658 266.965 486.106 266.779 485.62 266.563C485.134 266.341 484.75 266.062 484.468 265.726C484.192 265.384 484.054 264.949 484.054 264.421C484.054 263.863 484.207 263.38 484.513 262.972C484.825 262.564 485.233 262.249 485.737 262.027C486.241 261.805 486.781 261.694 487.357 261.694C488.083 261.694 488.746 261.85 489.346 262.162C489.946 262.474 490.393 262.897 490.687 263.431L489.472 264.142C489.37 263.926 489.214 263.737 489.004 263.575C488.794 263.407 488.554 263.275 488.284 263.179C488.014 263.083 487.738 263.032 487.456 263.026C487.108 263.014 486.781 263.059 486.475 263.161C486.175 263.263 485.932 263.419 485.746 263.629C485.566 263.833 485.476 264.088 485.476 264.394C485.476 264.694 485.572 264.922 485.764 265.078C485.962 265.234 486.217 265.36 486.529 265.456C486.847 265.546 487.192 265.651 487.564 265.771C488.11 265.945 488.62 266.146 489.094 266.374C489.568 266.602 489.949 266.887 490.237 267.229C490.531 267.571 490.675 267.994 490.669 268.498C490.669 269.05 490.504 269.533 490.174 269.947C489.844 270.355 489.415 270.667 488.887 270.883C488.365 271.099 487.804 271.195 487.204 271.171ZM491.851 267.58V262H493.363V267.247C493.363 267.703 493.474 268.117 493.696 268.489C493.918 268.861 494.215 269.158 494.587 269.38C494.965 269.596 495.379 269.704 495.829 269.704C496.285 269.704 496.696 269.596 497.062 269.38C497.434 269.158 497.731 268.861 497.953 268.489C498.175 268.117 498.286 267.703 498.286 267.247V262H499.798L499.807 271H498.295L498.286 269.857C497.968 270.277 497.566 270.613 497.08 270.865C496.594 271.111 496.069 271.234 495.505 271.234C494.833 271.234 494.218 271.072 493.66 270.748C493.108 270.418 492.667 269.977 492.337 269.425C492.013 268.873 491.851 268.258 491.851 267.58ZM502.881 275.5H501.369V262H502.881V263.539C503.187 263.011 503.595 262.585 504.105 262.261C504.615 261.931 505.221 261.766 505.923 261.766C506.577 261.766 507.189 261.889 507.759 262.135C508.335 262.381 508.839 262.723 509.271 263.161C509.703 263.593 510.042 264.094 510.288 264.664C510.534 265.234 510.657 265.846 510.657 266.5C510.657 267.154 510.534 267.769 510.288 268.345C510.042 268.921 509.703 269.428 509.271 269.866C508.839 270.298 508.335 270.637 507.759 270.883C507.189 271.129 506.577 271.252 505.923 271.252C505.221 271.252 504.615 271.09 504.105 270.766C503.595 270.436 503.187 270.007 502.881 269.479V275.5ZM505.905 263.233C505.323 263.233 504.813 263.38 504.375 263.674C503.937 263.968 503.598 264.361 503.358 264.853C503.124 265.345 503.007 265.894 503.007 266.5C503.007 267.1 503.124 267.649 503.358 268.147C503.598 268.645 503.934 269.041 504.366 269.335C504.804 269.629 505.317 269.776 505.905 269.776C506.487 269.776 507.021 269.632 507.507 269.344C507.993 269.05 508.383 268.657 508.677 268.165C508.971 267.667 509.118 267.112 509.118 266.5C509.118 265.9 508.974 265.354 508.686 264.862C508.398 264.364 508.011 263.968 507.525 263.674C507.039 263.38 506.499 263.233 505.905 263.233ZM513.674 275.5H512.162V262H513.674V263.539C513.98 263.011 514.388 262.585 514.898 262.261C515.408 261.931 516.014 261.766 516.716 261.766C517.37 261.766 517.982 261.889 518.552 262.135C519.128 262.381 519.632 262.723 520.064 263.161C520.496 263.593 520.835 264.094 521.081 264.664C521.327 265.234 521.45 265.846 521.45 266.5C521.45 267.154 521.327 267.769 521.081 268.345C520.835 268.921 520.496 269.428 520.064 269.866C519.632 270.298 519.128 270.637 518.552 270.883C517.982 271.129 517.37 271.252 516.716 271.252C516.014 271.252 515.408 271.09 514.898 270.766C514.388 270.436 513.98 270.007 513.674 269.479V275.5ZM516.698 263.233C516.116 263.233 515.606 263.38 515.168 263.674C514.73 263.968 514.391 264.361 514.151 264.853C513.917 265.345 513.8 265.894 513.8 266.5C513.8 267.1 513.917 267.649 514.151 268.147C514.391 268.645 514.727 269.041 515.159 269.335C515.597 269.629 516.11 269.776 516.698 269.776C517.28 269.776 517.814 269.632 518.3 269.344C518.786 269.05 519.176 268.657 519.47 268.165C519.764 267.667 519.911 267.112 519.911 266.5C519.911 265.9 519.767 265.354 519.479 264.862C519.191 264.364 518.804 263.968 518.318 263.674C517.832 263.38 517.292 263.233 516.698 263.233ZM526.862 271.234C526.034 271.234 525.278 271.021 524.594 270.595C523.916 270.169 523.373 269.599 522.965 268.885C522.563 268.165 522.362 267.37 522.362 266.5C522.362 265.84 522.479 265.225 522.713 264.655C522.947 264.079 523.268 263.575 523.676 263.143C524.09 262.705 524.57 262.363 525.116 262.117C525.662 261.871 526.244 261.748 526.862 261.748C527.69 261.748 528.443 261.961 529.121 262.387C529.805 262.813 530.348 263.386 530.75 264.106C531.158 264.826 531.362 265.624 531.362 266.5C531.362 267.154 531.245 267.766 531.011 268.336C530.777 268.906 530.453 269.41 530.039 269.848C529.631 270.28 529.154 270.619 528.608 270.865C528.068 271.111 527.486 271.234 526.862 271.234ZM526.862 269.722C527.426 269.722 527.933 269.575 528.383 269.281C528.839 268.981 529.196 268.588 529.454 268.102C529.718 267.61 529.85 267.076 529.85 266.5C529.85 265.912 529.715 265.372 529.445 264.88C529.181 264.388 528.824 263.995 528.374 263.701C527.924 263.407 527.42 263.26 526.862 263.26C526.298 263.26 525.791 263.41 525.341 263.71C524.891 264.004 524.534 264.397 524.27 264.889C524.006 265.381 523.874 265.918 523.874 266.5C523.874 267.1 524.009 267.646 524.279 268.138C524.549 268.624 524.912 269.011 525.368 269.299C525.824 269.581 526.322 269.722 526.862 269.722ZM532.851 271V262H534.363V263.125C534.681 262.705 535.083 262.372 535.569 262.126C536.055 261.874 536.583 261.748 537.153 261.748C537.501 261.748 537.837 261.793 538.161 261.883L537.549 263.395C537.303 263.317 537.063 263.278 536.829 263.278C536.379 263.278 535.965 263.389 535.587 263.611C535.215 263.827 534.918 264.121 534.696 264.493C534.474 264.865 534.363 265.279 534.363 265.735V271H532.851ZM544.088 263.512H542.045L542.036 271H540.524L540.533 263.512H538.985V262H540.533L540.524 259.174H542.036L542.045 262H544.088V263.512Z" fill="black"/>
<rect x="717" y="101" width="112" height="112" rx="24" fill="white"/>
<g clip-path="url(#clip1_1047_1468)">
<path d="M780.687 149.114C780.611 149.038 780.52 148.977 780.421 148.936C780.321 148.895 780.215 148.874 780.107 148.874C780 148.874 779.893 148.895 779.793 148.936C779.694 148.977 779.604 149.038 779.528 149.114L765.114 163.528C765.033 163.603 764.969 163.693 764.924 163.794C764.879 163.894 764.855 164.003 764.853 164.113C764.851 164.223 764.871 164.333 764.913 164.435C764.954 164.537 765.015 164.63 765.093 164.708C765.171 164.786 765.264 164.847 765.366 164.888C765.468 164.93 765.578 164.95 765.688 164.948C765.798 164.946 765.907 164.922 766.007 164.877C766.108 164.832 766.198 164.767 766.273 164.687L780.687 150.273C780.763 150.197 780.824 150.107 780.865 150.008C780.906 149.908 780.927 149.801 780.927 149.694C780.927 149.586 780.906 149.479 780.865 149.38C780.824 149.281 780.763 149.19 780.687 149.114ZM768.196 156.178C769.117 156.177 770.01 155.857 770.721 155.272C771.433 154.688 771.92 153.874 772.099 152.971C772.278 152.067 772.139 151.13 771.704 150.318C771.269 149.506 770.567 148.869 769.715 148.517C768.864 148.165 767.917 148.119 767.036 148.387C766.155 148.655 765.394 149.22 764.882 149.986C764.371 150.752 764.141 151.672 764.232 152.588C764.323 153.505 764.728 154.362 765.38 155.013C765.749 155.383 766.189 155.676 766.672 155.876C767.155 156.076 767.673 156.178 768.196 156.178ZM766.539 150.539C766.867 150.212 767.284 149.988 767.739 149.898C768.193 149.808 768.664 149.854 769.092 150.031C769.521 150.209 769.886 150.509 770.144 150.894C770.401 151.279 770.539 151.732 770.539 152.196C770.539 152.659 770.401 153.112 770.144 153.497C769.886 153.883 769.521 154.183 769.092 154.36C768.664 154.538 768.193 154.584 767.739 154.493C767.284 154.403 766.867 154.18 766.539 153.852C766.321 153.635 766.148 153.377 766.03 153.093C765.912 152.808 765.851 152.504 765.851 152.196C765.851 151.888 765.912 151.583 766.03 151.299C766.148 151.015 766.321 150.757 766.539 150.539ZM798.805 153.492C798.082 152.801 797.335 152.086 797.197 151.482C797.05 150.837 797.422 149.841 797.782 148.877C798.295 147.502 798.826 146.08 798.236 144.858C797.636 143.616 796.177 143.142 794.766 142.683C793.8 142.369 792.802 142.045 792.403 141.545C792.004 141.045 791.903 139.991 791.81 138.976C791.67 137.504 791.531 135.983 790.458 135.125C789.385 134.268 787.882 134.469 786.42 134.668C785.405 134.802 784.355 134.941 783.766 134.658C783.198 134.383 782.662 133.49 782.145 132.625C781.379 131.347 780.587 130.025 779.23 129.716C777.917 129.419 776.661 130.248 775.441 131.049C774.574 131.625 773.677 132.21 773 132.21C772.323 132.21 771.426 131.625 770.559 131.051C769.339 130.25 768.078 129.422 766.766 129.719C765.408 130.027 764.616 131.349 763.851 132.627C763.333 133.492 762.798 134.386 762.23 134.66C761.64 134.943 760.589 134.805 759.575 134.67C758.114 134.476 756.604 134.275 755.537 135.127C754.471 135.979 754.33 137.504 754.194 138.975C754.101 139.99 754.005 141.039 753.601 141.544C753.198 142.05 752.205 142.368 751.239 142.682C749.828 143.14 748.369 143.615 747.768 144.857C747.179 146.079 747.709 147.501 748.222 148.876C748.582 149.839 748.954 150.836 748.807 151.481C748.67 152.085 747.923 152.8 747.2 153.491C746.118 154.526 745 155.596 745 157C745 158.404 746.118 159.474 747.2 160.509C747.923 161.2 748.67 161.915 748.807 162.519C748.954 163.164 748.582 164.16 748.222 165.124C747.709 166.499 747.179 167.921 747.768 169.143C748.369 170.385 749.828 170.859 751.234 171.318C752.2 171.632 753.198 171.956 753.597 172.456C753.996 172.956 754.097 174.01 754.19 175.025C754.325 176.496 754.464 178.018 755.537 178.873C756.61 179.728 758.114 179.524 759.575 179.33C760.59 179.195 761.64 179.057 762.23 179.34C762.798 179.614 763.333 180.508 763.851 181.373C764.616 182.651 765.408 183.973 766.766 184.281C766.948 184.322 767.135 184.343 767.322 184.343C768.432 184.343 769.51 183.636 770.554 182.949C771.422 182.379 772.319 181.79 772.996 181.79C773.673 181.79 774.57 182.379 775.437 182.949C776.656 183.75 777.916 184.578 779.226 184.281C780.583 183.973 781.375 182.651 782.14 181.373C782.658 180.508 783.194 179.614 783.761 179.34C784.351 179.057 785.402 179.195 786.416 179.33C787.877 179.524 789.388 179.725 790.454 178.873C791.52 178.021 791.666 176.496 791.802 175.025C791.895 174.01 791.991 172.961 792.394 172.456C792.798 171.95 793.791 171.632 794.757 171.318C796.168 170.86 797.627 170.385 798.227 169.143C798.817 167.921 798.286 166.499 797.773 165.124C797.414 164.161 797.042 163.164 797.188 162.519C797.326 161.915 798.073 161.2 798.796 160.509C799.882 159.474 801 158.404 801 157C801 155.596 799.882 154.526 798.8 153.491L798.805 153.492ZM797.671 159.324C796.773 160.184 795.844 161.074 795.598 162.156C795.342 163.28 795.801 164.51 796.244 165.7C796.638 166.752 797.044 167.84 796.758 168.434C796.463 169.045 795.342 169.41 794.258 169.762C793.064 170.151 791.828 170.553 791.121 171.436C790.415 172.32 790.291 173.624 790.176 174.88C790.072 176.008 789.966 177.176 789.44 177.595C788.914 178.014 787.761 177.857 786.64 177.705C785.386 177.538 784.09 177.367 783.058 177.863C782.048 178.351 781.384 179.459 780.742 180.531C780.153 181.515 779.545 182.529 778.871 182.682C778.242 182.826 777.279 182.191 776.347 181.579C775.278 180.877 774.173 180.15 773.004 180.15C771.836 180.15 770.73 180.877 769.662 181.579C768.73 182.191 767.765 182.825 767.137 182.682C766.464 182.529 765.856 181.513 765.267 180.531C764.625 179.459 763.961 178.351 762.951 177.863C762.44 177.617 761.865 177.535 761.262 177.535C760.628 177.551 759.995 177.607 759.369 177.705C758.247 177.853 757.089 178.007 756.569 177.595C756.048 177.184 755.938 176.004 755.828 174.875C755.719 173.625 755.594 172.321 754.883 171.438C754.172 170.554 752.941 170.147 751.746 169.758C750.662 169.405 749.541 169.041 749.246 168.43C748.96 167.839 749.366 166.751 749.76 165.695C750.198 164.505 750.662 163.276 750.406 162.152C750.16 161.068 749.232 160.183 748.334 159.32C747.501 158.531 746.641 157.703 746.641 157C746.641 156.297 747.501 155.469 748.334 154.677C749.232 153.817 750.16 152.927 750.412 151.845C750.668 150.721 750.208 149.491 749.765 148.301C749.372 147.249 748.966 146.161 749.251 145.567C749.547 144.956 750.673 144.591 751.752 144.239C752.946 143.85 754.182 143.448 754.889 142.565C755.595 141.681 755.719 140.38 755.828 139.125C755.938 137.996 756.038 136.828 756.564 136.409C757.09 135.99 758.243 136.148 759.364 136.3C760.619 136.466 761.915 136.638 762.946 136.141C763.957 135.653 764.621 134.545 765.263 133.473C765.851 132.489 766.459 131.475 767.133 131.322C767.762 131.179 768.726 131.813 769.658 132.426C770.726 133.128 771.832 133.854 773 133.854C774.168 133.854 775.274 133.128 776.342 132.426C777.274 131.813 778.238 131.18 778.867 131.322C779.541 131.475 780.149 132.491 780.737 133.473C781.379 134.545 782.043 135.653 783.054 136.141C784.085 136.638 785.382 136.469 786.636 136.3C787.757 136.151 788.915 135.997 789.436 136.409C789.956 136.821 790.068 137.996 790.172 139.125C790.287 140.38 790.406 141.679 791.117 142.568C791.828 143.457 793.059 143.853 794.254 144.243C795.338 144.595 796.459 144.959 796.754 145.57C797.04 146.161 796.634 147.249 796.24 148.305C795.797 149.495 795.338 150.724 795.594 151.848C795.84 152.932 796.768 153.817 797.666 154.68C798.499 155.469 799.359 156.297 799.359 157C799.359 157.703 798.499 158.531 797.666 159.323L797.671 159.324ZM773 137.438C762.213 137.438 753.438 146.213 753.438 157C753.438 167.787 762.213 176.562 773 176.562C783.787 176.562 792.562 167.787 792.562 157C792.562 146.213 783.787 137.438 773 137.438ZM773 174.921C763.118 174.921 755.079 166.882 755.079 157C755.079 147.118 763.118 139.079 773 139.079C782.882 139.079 790.921 147.118 790.921 157C790.921 166.882 782.882 174.921 773 174.921ZM774.987 158.987C774.43 159.544 774.051 160.254 773.897 161.027C773.743 161.8 773.822 162.601 774.123 163.329C774.425 164.057 774.935 164.679 775.591 165.116C776.246 165.554 777.016 165.788 777.804 165.788C778.592 165.788 779.362 165.554 780.017 165.116C780.672 164.679 781.183 164.057 781.484 163.329C781.786 162.601 781.864 161.8 781.711 161.027C781.557 160.254 781.177 159.544 780.62 158.987C779.873 158.241 778.86 157.822 777.804 157.822C776.748 157.822 775.735 158.241 774.987 158.987ZM779.461 163.461C779.133 163.788 778.716 164.012 778.261 164.102C777.807 164.193 777.336 164.146 776.908 163.969C776.479 163.792 776.114 163.491 775.856 163.106C775.599 162.721 775.461 162.268 775.461 161.804C775.461 161.341 775.599 160.888 775.856 160.503C776.114 160.117 776.479 159.817 776.908 159.64C777.336 159.463 777.807 159.416 778.261 159.507C778.716 159.597 779.133 159.82 779.461 160.148C779.9 160.587 780.146 161.183 780.146 161.804C780.146 162.425 779.9 163.021 779.461 163.461Z" fill="#0A81D1"/>
</g>
<path d="M748.61 247L745.388 234.4H746.945L749.483 244.345L752.012 234.4H753.371L755.909 244.345L758.438 234.4H759.995L756.791 247H755.027L752.696 237.874L750.365 247H748.61ZM764.496 247.234C763.668 247.234 762.912 247.021 762.228 246.595C761.55 246.169 761.007 245.599 760.599 244.885C760.197 244.165 759.996 243.37 759.996 242.5C759.996 241.84 760.113 241.225 760.347 240.655C760.581 240.079 760.902 239.575 761.31 239.143C761.724 238.705 762.204 238.363 762.75 238.117C763.296 237.871 763.878 237.748 764.496 237.748C765.174 237.748 765.795 237.886 766.359 238.162C766.929 238.432 767.415 238.81 767.817 239.296C768.225 239.782 768.528 240.346 768.726 240.988C768.93 241.63 769.005 242.317 768.951 243.049H761.607C761.679 243.559 761.847 244.015 762.111 244.417C762.375 244.813 762.711 245.128 763.119 245.362C763.533 245.596 763.992 245.716 764.496 245.722C765.036 245.722 765.525 245.584 765.963 245.308C766.401 245.026 766.755 244.642 767.025 244.156L768.564 244.516C768.204 245.314 767.661 245.968 766.935 246.478C766.209 246.982 765.396 247.234 764.496 247.234ZM761.562 241.861H767.43C767.382 241.357 767.22 240.898 766.944 240.484C766.668 240.064 766.317 239.728 765.891 239.476C765.465 239.224 765 239.098 764.496 239.098C763.992 239.098 763.53 239.221 763.11 239.467C762.69 239.713 762.342 240.046 762.066 240.466C761.796 240.88 761.628 241.345 761.562 241.861ZM774.375 247.234C773.547 247.234 772.791 247.021 772.107 246.595C771.429 246.169 770.886 245.599 770.478 244.885C770.076 244.165 769.875 243.37 769.875 242.5C769.875 241.84 769.992 241.225 770.226 240.655C770.46 240.079 770.781 239.575 771.189 239.143C771.603 238.705 772.083 238.363 772.629 238.117C773.175 237.871 773.757 237.748 774.375 237.748C775.053 237.748 775.674 237.886 776.238 238.162C776.808 238.432 777.294 238.81 777.696 239.296C778.104 239.782 778.407 240.346 778.605 240.988C778.809 241.63 778.884 242.317 778.83 243.049H771.486C771.558 243.559 771.726 244.015 771.99 244.417C772.254 244.813 772.59 245.128 772.998 245.362C773.412 245.596 773.871 245.716 774.375 245.722C774.915 245.722 775.404 245.584 775.842 245.308C776.28 245.026 776.634 244.642 776.904 244.156L778.443 244.516C778.083 245.314 777.54 245.968 776.814 246.478C776.088 246.982 775.275 247.234 774.375 247.234ZM771.441 241.861H777.309C777.261 241.357 777.099 240.898 776.823 240.484C776.547 240.064 776.196 239.728 775.77 239.476C775.344 239.224 774.879 239.098 774.375 239.098C773.871 239.098 773.409 239.221 772.989 239.467C772.569 239.713 772.221 240.046 771.945 240.466C771.675 240.88 771.507 241.345 771.441 241.861ZM787.558 247H785.821L783.427 242.869L781.771 244.849V247H780.259V233.5H781.771V242.5L785.542 238H787.513L784.453 241.645L787.558 247ZM789.311 247V233.5H790.823V247H789.311ZM798.799 238H800.401L795.478 251.5H793.876L795.505 247L792.274 238H793.93L796.261 244.921L798.799 238ZM740.312 271V258.4H744.479C745.349 258.4 746.165 258.565 746.927 258.895C747.689 259.219 748.358 259.672 748.934 260.254C749.51 260.83 749.96 261.499 750.284 262.261C750.614 263.017 750.779 263.83 750.779 264.7C750.779 265.57 750.614 266.386 750.284 267.148C749.96 267.904 749.51 268.573 748.934 269.155C748.358 269.731 747.689 270.184 746.927 270.514C746.165 270.838 745.349 271 744.479 271H740.312ZM741.824 269.488H744.479C745.139 269.488 745.757 269.365 746.333 269.119C746.915 268.867 747.425 268.522 747.863 268.084C748.301 267.646 748.643 267.139 748.889 266.563C749.141 265.981 749.267 265.36 749.267 264.7C749.267 264.04 749.141 263.422 748.889 262.846C748.643 262.264 748.298 261.754 747.854 261.316C747.416 260.878 746.909 260.536 746.333 260.29C745.757 260.038 745.139 259.912 744.479 259.912H741.824V269.488ZM752.318 262H753.83V271H752.318V262ZM753.092 260.533C752.852 260.533 752.651 260.455 752.489 260.299C752.327 260.143 752.246 259.948 752.246 259.714C752.246 259.48 752.327 259.285 752.489 259.129C752.651 258.973 752.849 258.895 753.083 258.895C753.317 258.895 753.515 258.973 753.677 259.129C753.839 259.285 753.92 259.48 753.92 259.714C753.92 259.948 753.839 260.143 753.677 260.299C753.521 260.455 753.326 260.533 753.092 260.533ZM758.649 271.171C758.163 271.153 757.689 271.063 757.227 270.901C756.771 270.733 756.369 270.508 756.021 270.226C755.679 269.938 755.43 269.608 755.274 269.236L756.57 268.678C756.66 268.882 756.822 269.074 757.056 269.254C757.29 269.434 757.56 269.578 757.866 269.686C758.172 269.794 758.481 269.848 758.793 269.848C759.123 269.848 759.432 269.797 759.72 269.695C760.008 269.593 760.242 269.443 760.422 269.245C760.608 269.041 760.701 268.798 760.701 268.516C760.701 268.216 760.599 267.982 760.395 267.814C760.197 267.64 759.945 267.505 759.639 267.409C759.339 267.307 759.033 267.211 758.721 267.121C758.103 266.965 757.551 266.779 757.065 266.563C756.579 266.341 756.195 266.062 755.913 265.726C755.637 265.384 755.499 264.949 755.499 264.421C755.499 263.863 755.652 263.38 755.958 262.972C756.27 262.564 756.678 262.249 757.182 262.027C757.686 261.805 758.226 261.694 758.802 261.694C759.528 261.694 760.191 261.85 760.791 262.162C761.391 262.474 761.838 262.897 762.132 263.431L760.917 264.142C760.815 263.926 760.659 263.737 760.449 263.575C760.239 263.407 759.999 263.275 759.729 263.179C759.459 263.083 759.183 263.032 758.901 263.026C758.553 263.014 758.226 263.059 757.92 263.161C757.62 263.263 757.377 263.419 757.191 263.629C757.011 263.833 756.921 264.088 756.921 264.394C756.921 264.694 757.017 264.922 757.209 265.078C757.407 265.234 757.662 265.36 757.974 265.456C758.292 265.546 758.637 265.651 759.009 265.771C759.555 265.945 760.065 266.146 760.539 266.374C761.013 266.602 761.394 266.887 761.682 267.229C761.976 267.571 762.12 267.994 762.114 268.498C762.114 269.05 761.949 269.533 761.619 269.947C761.289 270.355 760.86 270.667 760.332 270.883C759.81 271.099 759.249 271.195 758.649 271.171ZM769.769 268.624L771.119 269.353C770.711 269.923 770.192 270.379 769.562 270.721C768.938 271.063 768.26 271.234 767.528 271.234C766.7 271.234 765.944 271.021 765.26 270.595C764.582 270.169 764.039 269.599 763.631 268.885C763.229 268.165 763.028 267.37 763.028 266.5C763.028 265.84 763.145 265.225 763.379 264.655C763.613 264.079 763.934 263.575 764.342 263.143C764.756 262.705 765.236 262.363 765.782 262.117C766.328 261.871 766.91 261.748 767.528 261.748C768.26 261.748 768.938 261.919 769.562 262.261C770.192 262.603 770.711 263.062 771.119 263.638L769.769 264.367C769.481 264.013 769.139 263.74 768.743 263.548C768.347 263.356 767.942 263.26 767.528 263.26C766.97 263.26 766.463 263.41 766.007 263.71C765.557 264.004 765.2 264.397 764.936 264.889C764.672 265.381 764.54 265.918 764.54 266.5C764.54 267.082 764.672 267.619 764.936 268.111C765.206 268.597 765.566 268.987 766.016 269.281C766.472 269.575 766.976 269.722 767.528 269.722C767.972 269.722 768.389 269.62 768.779 269.416C769.169 269.212 769.499 268.948 769.769 268.624ZM776.546 271.234C775.718 271.234 774.962 271.021 774.278 270.595C773.6 270.169 773.057 269.599 772.649 268.885C772.247 268.165 772.046 267.37 772.046 266.5C772.046 265.84 772.163 265.225 772.397 264.655C772.631 264.079 772.952 263.575 773.36 263.143C773.774 262.705 774.254 262.363 774.8 262.117C775.346 261.871 775.928 261.748 776.546 261.748C777.374 261.748 778.127 261.961 778.805 262.387C779.489 262.813 780.032 263.386 780.434 264.106C780.842 264.826 781.046 265.624 781.046 266.5C781.046 267.154 780.929 267.766 780.695 268.336C780.461 268.906 780.137 269.41 779.723 269.848C779.315 270.28 778.838 270.619 778.292 270.865C777.752 271.111 777.17 271.234 776.546 271.234ZM776.546 269.722C777.11 269.722 777.617 269.575 778.067 269.281C778.523 268.981 778.88 268.588 779.138 268.102C779.402 267.61 779.534 267.076 779.534 266.5C779.534 265.912 779.399 265.372 779.129 264.88C778.865 264.388 778.508 263.995 778.058 263.701C777.608 263.407 777.104 263.26 776.546 263.26C775.982 263.26 775.475 263.41 775.025 263.71C774.575 264.004 774.218 264.397 773.954 264.889C773.69 265.381 773.558 265.918 773.558 266.5C773.558 267.1 773.693 267.646 773.963 268.138C774.233 268.624 774.596 269.011 775.052 269.299C775.508 269.581 776.006 269.722 776.546 269.722ZM782.052 267.58V262H783.564V267.247C783.564 267.703 783.675 268.117 783.897 268.489C784.119 268.861 784.416 269.158 784.788 269.38C785.166 269.596 785.58 269.704 786.03 269.704C786.486 269.704 786.897 269.596 787.263 269.38C787.635 269.158 787.932 268.861 788.154 268.489C788.376 268.117 788.487 267.703 788.487 267.247V262H789.999L790.008 271H788.496L788.487 269.857C788.169 270.277 787.767 270.613 787.281 270.865C786.795 271.111 786.27 271.234 785.706 271.234C785.034 271.234 784.419 271.072 783.861 270.748C783.309 270.418 782.868 269.977 782.538 269.425C782.214 268.873 782.052 268.258 782.052 267.58ZM799.772 265.402V271H798.26V265.735C798.26 265.279 798.149 264.865 797.927 264.493C797.705 264.121 797.408 263.827 797.036 263.611C796.664 263.389 796.25 263.278 795.794 263.278C795.344 263.278 794.93 263.389 794.552 263.611C794.18 263.827 793.883 264.121 793.661 264.493C793.439 264.865 793.328 265.279 793.328 265.735V271H791.816V262H793.328V263.125C793.646 262.705 794.048 262.372 794.534 262.126C795.02 261.874 795.548 261.748 796.118 261.748C796.79 261.748 797.402 261.913 797.954 262.243C798.512 262.567 798.953 263.005 799.277 263.557C799.607 264.109 799.772 264.724 799.772 265.402ZM806.234 263.512H804.191L804.182 271H802.67L802.679 263.512H801.131V262H802.679L802.67 259.174H804.182L804.191 262H806.234V263.512Z" fill="black"/>
<rect x="967" y="101" width="112" height="112" rx="24" fill="white"/>
<path d="M1037.29 162.294C1033.4 162.294 1030.24 165.461 1030.24 169.353C1030.24 173.245 1033.4 176.412 1037.29 176.412C1041.19 176.412 1044.35 173.245 1044.35 169.353C1044.35 165.461 1041.19 162.294 1037.29 162.294ZM1037.29 172.882C1035.35 172.882 1033.76 171.299 1033.76 169.353C1033.76 167.407 1035.35 165.824 1037.29 165.824C1039.24 165.824 1040.82 167.407 1040.82 169.353C1040.82 171.299 1039.24 172.882 1037.29 172.882ZM1013.18 162.294C1009.28 162.294 1006.12 165.461 1006.12 169.353C1006.12 173.245 1009.28 176.412 1013.18 176.412C1017.07 176.412 1020.24 173.245 1020.24 169.353C1020.24 165.461 1017.07 162.294 1013.18 162.294ZM1013.18 172.882C1011.23 172.882 1009.65 171.299 1009.65 169.353C1009.65 167.407 1011.23 165.824 1013.18 165.824C1015.12 165.824 1016.71 167.407 1016.71 169.353C1016.71 171.299 1015.12 172.882 1013.18 172.882ZM1042.05 142.089C1041.9 141.797 1041.68 141.552 1041.4 141.38C1041.12 141.209 1040.8 141.118 1040.47 141.118H1031.18V144.647H1039.38L1044.19 154.205L1047.34 152.619L1042.05 142.089Z" fill="#0A81D1"/>
<path d="M1018.65 167.647H1032V171.177H1018.65V167.647ZM1007.88 167.647H1001.76C1000.79 167.647 1000 168.437 1000 169.412C1000 170.387 1000.79 171.176 1001.76 171.176H1007.88C1008.86 171.176 1009.65 170.386 1009.65 169.412C1009.65 168.437 1008.86 167.647 1007.88 167.647ZM1050.63 156.859L1047.16 152.388C1046.99 152.176 1046.78 152.004 1046.54 151.885C1046.3 151.767 1046.03 151.706 1045.76 151.706H1032.94V139.353C1032.94 138.378 1032.15 137.588 1031.18 137.588H1001.76C1000.79 137.588 1000 138.378 1000 139.353C1000 140.328 1000.79 141.118 1001.76 141.118H1029.41V153.47C1029.41 154.445 1030.2 155.235 1031.18 155.235H1044.9L1047.47 158.546V167.647H1042.59C1041.61 167.647 1040.82 168.437 1040.82 169.412C1040.82 170.386 1041.61 171.176 1042.59 171.176H1049.24C1050.21 171.176 1051 170.386 1051 169.412V157.941C1051 157.549 1050.87 157.168 1050.63 156.859ZM1007.76 158.706H999.647C998.672 158.706 997.882 159.496 997.882 160.471C997.882 161.445 998.672 162.235 999.647 162.235H1007.76C1008.74 162.235 1009.53 161.445 1009.53 160.471C1009.53 159.496 1008.74 158.706 1007.76 158.706ZM1011.82 151.765H996.765C995.79 151.765 995 152.555 995 153.529C995 154.504 995.79 155.294 996.765 155.294H1011.82C1012.8 155.294 1013.59 154.504 1013.59 153.529C1013.59 152.555 1012.8 151.765 1011.82 151.765Z" fill="#0A81D1"/>
<path d="M1014.71 144.823H999.647C998.672 144.823 997.882 145.614 997.882 146.588C997.882 147.563 998.672 148.353 999.647 148.353H1014.71C1015.68 148.353 1016.47 147.563 1016.47 146.588C1016.47 145.614 1015.68 144.823 1014.71 144.823Z" fill="#0A81D1"/>
<path d="M975.371 247V234.4H982.76V235.912H976.883V239.494H981.896V241.006H976.883V247H975.371ZM983.668 247V238H985.18V239.125C985.498 238.705 985.9 238.372 986.386 238.126C986.872 237.874 987.4 237.748 987.97 237.748C988.318 237.748 988.654 237.793 988.978 237.883L988.366 239.395C988.12 239.317 987.88 239.278 987.646 239.278C987.196 239.278 986.782 239.389 986.404 239.611C986.032 239.827 985.735 240.121 985.513 240.493C985.291 240.865 985.18 241.279 985.18 241.735V247H983.668ZM993.587 247.234C992.759 247.234 992.003 247.021 991.319 246.595C990.641 246.169 990.098 245.599 989.69 244.885C989.288 244.165 989.087 243.37 989.087 242.5C989.087 241.84 989.204 241.225 989.438 240.655C989.672 240.079 989.993 239.575 990.401 239.143C990.815 238.705 991.295 238.363 991.841 238.117C992.387 237.871 992.969 237.748 993.587 237.748C994.265 237.748 994.886 237.886 995.45 238.162C996.02 238.432 996.506 238.81 996.908 239.296C997.316 239.782 997.619 240.346 997.817 240.988C998.021 241.63 998.096 242.317 998.042 243.049H990.698C990.77 243.559 990.938 244.015 991.202 244.417C991.466 244.813 991.802 245.128 992.21 245.362C992.624 245.596 993.083 245.716 993.587 245.722C994.127 245.722 994.616 245.584 995.054 245.308C995.492 245.026 995.846 244.642 996.116 244.156L997.655 244.516C997.295 245.314 996.752 245.968 996.026 246.478C995.3 246.982 994.487 247.234 993.587 247.234ZM990.653 241.861H996.521C996.473 241.357 996.311 240.898 996.035 240.484C995.759 240.064 995.408 239.728 994.982 239.476C994.556 239.224 994.091 239.098 993.587 239.098C993.083 239.098 992.621 239.221 992.201 239.467C991.781 239.713 991.433 240.046 991.157 240.466C990.887 240.88 990.719 241.345 990.653 241.861ZM1003.47 247.234C1002.64 247.234 1001.88 247.021 1001.2 246.595C1000.52 246.169 999.977 245.599 999.569 244.885C999.167 244.165 998.966 243.37 998.966 242.5C998.966 241.84 999.083 241.225 999.317 240.655C999.551 240.079 999.872 239.575 1000.28 239.143C1000.69 238.705 1001.17 238.363 1001.72 238.117C1002.27 237.871 1002.85 237.748 1003.47 237.748C1004.14 237.748 1004.76 237.886 1005.33 238.162C1005.9 238.432 1006.38 238.81 1006.79 239.296C1007.19 239.782 1007.5 240.346 1007.7 240.988C1007.9 241.63 1007.97 242.317 1007.92 243.049H1000.58C1000.65 243.559 1000.82 244.015 1001.08 244.417C1001.34 244.813 1001.68 245.128 1002.09 245.362C1002.5 245.596 1002.96 245.716 1003.47 245.722C1004.01 245.722 1004.49 245.584 1004.93 245.308C1005.37 245.026 1005.72 244.642 1005.99 244.156L1007.53 244.516C1007.17 245.314 1006.63 245.968 1005.9 246.478C1005.18 246.982 1004.37 247.234 1003.47 247.234ZM1000.53 241.861H1006.4C1006.35 241.357 1006.19 240.898 1005.91 240.484C1005.64 240.064 1005.29 239.728 1004.86 239.476C1004.43 239.224 1003.97 239.098 1003.47 239.098C1002.96 239.098 1002.5 239.221 1002.08 239.467C1001.66 239.713 1001.31 240.046 1001.04 240.466C1000.77 240.88 1000.6 241.345 1000.53 241.861ZM1017.23 247.234C1016.51 247.234 1015.87 247.06 1015.32 246.712C1014.76 246.364 1014.32 245.908 1014 245.344C1013.68 244.774 1013.52 244.165 1013.52 243.517C1013.52 243.127 1013.56 242.788 1013.64 242.5C1013.72 242.212 1013.85 241.93 1014.05 241.654C1014.24 241.372 1014.51 241.051 1014.86 240.691C1015.2 240.331 1015.64 239.884 1016.17 239.35C1015.86 239.038 1015.61 238.774 1015.41 238.558C1015.2 238.336 1015.04 238.132 1014.93 237.946C1014.81 237.76 1014.73 237.571 1014.69 237.379C1014.64 237.187 1014.61 236.965 1014.61 236.713C1014.61 236.221 1014.73 235.777 1014.97 235.381C1015.21 234.979 1015.53 234.664 1015.93 234.436C1016.33 234.202 1016.76 234.085 1017.23 234.085C1017.72 234.085 1018.16 234.202 1018.56 234.436C1018.95 234.67 1019.27 234.985 1019.5 235.381C1019.74 235.777 1019.86 236.221 1019.86 236.713C1019.86 236.971 1019.84 237.199 1019.79 237.397C1019.74 237.595 1019.66 237.787 1019.54 237.973C1019.42 238.159 1019.25 238.363 1019.05 238.585C1018.85 238.801 1018.6 239.056 1018.3 239.35L1021.41 242.455L1023.46 240.394V242.527L1022.46 243.535L1024.87 245.929L1023.8 247L1021.41 244.615C1020.87 245.149 1020.42 245.587 1020.05 245.929C1019.69 246.271 1019.37 246.538 1019.09 246.73C1018.81 246.922 1018.53 247.054 1018.24 247.126C1017.96 247.198 1017.62 247.234 1017.23 247.234ZM1017.23 245.722C1017.51 245.722 1017.74 245.692 1017.93 245.632C1018.13 245.566 1018.33 245.455 1018.53 245.299C1018.73 245.137 1018.97 244.915 1019.25 244.633C1019.53 244.345 1019.89 243.976 1020.34 243.526L1017.23 240.421C1016.78 240.883 1016.4 241.258 1016.12 241.546C1015.83 241.828 1015.61 242.068 1015.45 242.266C1015.3 242.464 1015.2 242.659 1015.14 242.851C1015.08 243.043 1015.05 243.271 1015.05 243.535C1015.05 243.949 1015.14 244.321 1015.34 244.651C1015.55 244.981 1015.81 245.242 1016.14 245.434C1016.47 245.626 1016.84 245.722 1017.23 245.722ZM1017.23 238.477C1017.59 238.123 1017.85 237.856 1018.03 237.676C1018.22 237.496 1018.35 237.34 1018.41 237.208C1018.48 237.076 1018.51 236.905 1018.51 236.695C1018.51 236.323 1018.38 236.017 1018.12 235.777C1017.87 235.537 1017.57 235.417 1017.23 235.417C1016.88 235.417 1016.59 235.543 1016.34 235.795C1016.1 236.047 1015.97 236.347 1015.97 236.695C1015.97 236.905 1016.01 237.082 1016.08 237.226C1016.15 237.364 1016.28 237.523 1016.46 237.703C1016.64 237.883 1016.9 238.141 1017.23 238.477ZM1035.2 247.252C1034.33 247.252 1033.53 247.039 1032.81 246.613C1032.1 246.187 1031.53 245.614 1031.1 244.894C1030.68 244.174 1030.47 243.376 1030.47 242.5C1030.47 241.846 1030.59 241.234 1030.83 240.664C1031.08 240.094 1031.42 239.593 1031.85 239.161C1032.29 238.723 1032.79 238.381 1033.36 238.135C1033.93 237.889 1034.55 237.766 1035.2 237.766C1035.9 237.766 1036.5 237.931 1037.01 238.261C1037.52 238.585 1037.94 239.011 1038.24 239.539V238H1039.75V251.5H1038.24V245.479C1037.94 246.007 1037.52 246.436 1037.01 246.766C1036.5 247.09 1035.9 247.252 1035.2 247.252ZM1035.22 239.233C1034.62 239.233 1034.08 239.38 1033.6 239.674C1033.11 239.968 1032.72 240.364 1032.44 240.862C1032.15 241.354 1032.01 241.9 1032.01 242.5C1032.01 243.112 1032.16 243.667 1032.45 244.165C1032.74 244.657 1033.13 245.05 1033.62 245.344C1034.1 245.632 1034.64 245.776 1035.22 245.776C1035.81 245.776 1036.32 245.629 1036.76 245.335C1037.19 245.041 1037.52 244.645 1037.76 244.147C1038 243.649 1038.12 243.1 1038.12 242.5C1038.12 241.894 1038 241.345 1037.76 240.853C1037.52 240.361 1037.19 239.968 1036.75 239.674C1036.32 239.38 1035.81 239.233 1035.22 239.233ZM1041.4 243.58V238H1042.92V243.247C1042.92 243.703 1043.03 244.117 1043.25 244.489C1043.47 244.861 1043.77 245.158 1044.14 245.38C1044.52 245.596 1044.93 245.704 1045.38 245.704C1045.84 245.704 1046.25 245.596 1046.61 245.38C1046.99 245.158 1047.28 244.861 1047.51 244.489C1047.73 244.117 1047.84 243.703 1047.84 243.247V238H1049.35L1049.36 247H1047.85L1047.84 245.857C1047.52 246.277 1047.12 246.613 1046.63 246.865C1046.15 247.111 1045.62 247.234 1045.06 247.234C1044.39 247.234 1043.77 247.072 1043.21 246.748C1042.66 246.418 1042.22 245.977 1041.89 245.425C1041.57 244.873 1041.4 244.258 1041.4 243.58ZM1051.17 238H1052.68V247H1051.17V238ZM1051.94 236.533C1051.7 236.533 1051.5 236.455 1051.34 236.299C1051.18 236.143 1051.1 235.948 1051.1 235.714C1051.1 235.48 1051.18 235.285 1051.34 235.129C1051.5 234.973 1051.7 234.895 1051.93 234.895C1052.17 234.895 1052.36 234.973 1052.53 235.129C1052.69 235.285 1052.77 235.48 1052.77 235.714C1052.77 235.948 1052.69 236.143 1052.53 236.299C1052.37 236.455 1052.18 236.533 1051.94 236.533ZM1060.92 244.624L1062.27 245.353C1061.86 245.923 1061.34 246.379 1060.71 246.721C1060.09 247.063 1059.41 247.234 1058.68 247.234C1057.85 247.234 1057.09 247.021 1056.41 246.595C1055.73 246.169 1055.19 245.599 1054.78 244.885C1054.38 244.165 1054.18 243.37 1054.18 242.5C1054.18 241.84 1054.3 241.225 1054.53 240.655C1054.76 240.079 1055.08 239.575 1055.49 239.143C1055.91 238.705 1056.39 238.363 1056.93 238.117C1057.48 237.871 1058.06 237.748 1058.68 237.748C1059.41 237.748 1060.09 237.919 1060.71 238.261C1061.34 238.603 1061.86 239.062 1062.27 239.638L1060.92 240.367C1060.63 240.013 1060.29 239.74 1059.89 239.548C1059.5 239.356 1059.09 239.26 1058.68 239.26C1058.12 239.26 1057.61 239.41 1057.16 239.71C1056.71 240.004 1056.35 240.397 1056.09 240.889C1055.82 241.381 1055.69 241.918 1055.69 242.5C1055.69 243.082 1055.82 243.619 1056.09 244.111C1056.36 244.597 1056.72 244.987 1057.17 245.281C1057.62 245.575 1058.13 245.722 1058.68 245.722C1059.12 245.722 1059.54 245.62 1059.93 245.416C1060.32 245.212 1060.65 244.948 1060.92 244.624ZM1071.04 247H1069.3L1066.9 242.869L1065.25 244.849V247H1063.74V233.5H1065.25V242.5L1069.02 238H1070.99L1067.93 241.645L1071.04 247ZM999.904 257.5H1001.42V271H999.904V269.47C999.598 269.998 999.187 270.424 998.671 270.748C998.155 271.072 997.549 271.234 996.853 271.234C996.199 271.234 995.587 271.111 995.017 270.865C994.447 270.619 993.943 270.28 993.505 269.848C993.073 269.41 992.734 268.906 992.488 268.336C992.242 267.766 992.119 267.154 992.119 266.5C992.119 265.846 992.242 265.234 992.488 264.664C992.734 264.088 993.073 263.584 993.505 263.152C993.943 262.714 994.447 262.372 995.017 262.126C995.587 261.88 996.199 261.757 996.853 261.757C997.549 261.757 998.155 261.919 998.671 262.243C999.187 262.567 999.598 262.993 999.904 263.521V257.5ZM996.871 269.767C997.465 269.767 997.978 269.623 998.41 269.335C998.848 269.041 999.184 268.645 999.418 268.147C999.658 267.649 999.778 267.1 999.778 266.5C999.778 265.888 999.658 265.336 999.418 264.844C999.178 264.346 998.839 263.953 998.401 263.665C997.969 263.371 997.459 263.224 996.871 263.224C996.277 263.224 995.737 263.371 995.251 263.665C994.771 263.959 994.387 264.355 994.099 264.853C993.811 265.345 993.667 265.894 993.667 266.5C993.667 267.106 993.814 267.658 994.108 268.156C994.402 268.648 994.792 269.041 995.278 269.335C995.764 269.623 996.295 269.767 996.871 269.767ZM1007.45 271.234C1006.62 271.234 1005.86 271.021 1005.18 270.595C1004.5 270.169 1003.96 269.599 1003.55 268.885C1003.15 268.165 1002.95 267.37 1002.95 266.5C1002.95 265.84 1003.06 265.225 1003.3 264.655C1003.53 264.079 1003.85 263.575 1004.26 263.143C1004.68 262.705 1005.16 262.363 1005.7 262.117C1006.25 261.871 1006.83 261.748 1007.45 261.748C1008.13 261.748 1008.75 261.886 1009.31 262.162C1009.88 262.432 1010.37 262.81 1010.77 263.296C1011.18 263.782 1011.48 264.346 1011.68 264.988C1011.88 265.63 1011.96 266.317 1011.9 267.049H1004.56C1004.63 267.559 1004.8 268.015 1005.06 268.417C1005.33 268.813 1005.66 269.128 1006.07 269.362C1006.48 269.596 1006.94 269.716 1007.45 269.722C1007.99 269.722 1008.48 269.584 1008.91 269.308C1009.35 269.026 1009.71 268.642 1009.98 268.156L1011.52 268.516C1011.16 269.314 1010.61 269.968 1009.89 270.478C1009.16 270.982 1008.35 271.234 1007.45 271.234ZM1004.51 265.861H1010.38C1010.33 265.357 1010.17 264.898 1009.9 264.484C1009.62 264.064 1009.27 263.728 1008.84 263.476C1008.42 263.224 1007.95 263.098 1007.45 263.098C1006.94 263.098 1006.48 263.221 1006.06 263.467C1005.64 263.713 1005.29 264.046 1005.02 264.466C1004.75 264.88 1004.58 265.345 1004.51 265.861ZM1013.33 271V257.5H1014.84V271H1013.33ZM1017 262H1018.52V271H1017V262ZM1017.78 260.533C1017.54 260.533 1017.34 260.455 1017.18 260.299C1017.01 260.143 1016.93 259.948 1016.93 259.714C1016.93 259.48 1017.01 259.285 1017.18 259.129C1017.34 258.973 1017.54 258.895 1017.77 258.895C1018 258.895 1018.2 258.973 1018.36 259.129C1018.53 259.285 1018.61 259.48 1018.61 259.714C1018.61 259.948 1018.53 260.143 1018.36 260.299C1018.21 260.455 1018.01 260.533 1017.78 260.533ZM1025.2 271H1023.27L1019.98 261.982H1021.59L1024.23 269.245L1026.87 261.982H1028.48L1025.2 271ZM1033.55 271.234C1032.72 271.234 1031.97 271.021 1031.28 270.595C1030.6 270.169 1030.06 269.599 1029.65 268.885C1029.25 268.165 1029.05 267.37 1029.05 266.5C1029.05 265.84 1029.17 265.225 1029.4 264.655C1029.64 264.079 1029.96 263.575 1030.36 263.143C1030.78 262.705 1031.26 262.363 1031.8 262.117C1032.35 261.871 1032.93 261.748 1033.55 261.748C1034.23 261.748 1034.85 261.886 1035.41 262.162C1035.98 262.432 1036.47 262.81 1036.87 263.296C1037.28 263.782 1037.58 264.346 1037.78 264.988C1037.98 265.63 1038.06 266.317 1038.01 267.049H1030.66C1030.73 267.559 1030.9 268.015 1031.17 268.417C1031.43 268.813 1031.77 269.128 1032.17 269.362C1032.59 269.596 1033.05 269.716 1033.55 269.722C1034.09 269.722 1034.58 269.584 1035.02 269.308C1035.46 269.026 1035.81 268.642 1036.08 268.156L1037.62 268.516C1037.26 269.314 1036.72 269.968 1035.99 270.478C1035.26 270.982 1034.45 271.234 1033.55 271.234ZM1030.62 265.861H1036.48C1036.44 265.357 1036.27 264.898 1036 264.484C1035.72 264.064 1035.37 263.728 1034.95 263.476C1034.52 263.224 1034.05 263.098 1033.55 263.098C1033.05 263.098 1032.58 263.221 1032.16 263.467C1031.74 263.713 1031.4 264.046 1031.12 264.466C1030.85 264.88 1030.68 265.345 1030.62 265.861ZM1039.52 271V262H1041.03V263.125C1041.35 262.705 1041.75 262.372 1042.24 262.126C1042.73 261.874 1043.25 261.748 1043.82 261.748C1044.17 261.748 1044.51 261.793 1044.83 261.883L1044.22 263.395C1043.97 263.317 1043.73 263.278 1043.5 263.278C1043.05 263.278 1042.64 263.389 1042.26 263.611C1041.89 263.827 1041.59 264.121 1041.37 264.493C1041.15 264.865 1041.03 265.279 1041.03 265.735V271H1039.52ZM1052.1 262H1053.71L1048.78 275.5H1047.18L1048.81 271L1045.58 262H1047.23L1049.57 268.921L1052.1 262Z" fill="white"/>
<rect x="1217" y="101" width="112" height="112" rx="24" fill="white"/>
<path d="M1284.46 169.7V183.87C1284.46 184.273 1284.38 184.672 1284.23 185.043C1284.07 185.415 1283.85 185.753 1283.56 186.037C1283.28 186.322 1282.94 186.547 1282.56 186.7C1282.19 186.853 1281.79 186.931 1281.39 186.93H1260.18C1259.37 186.93 1258.59 186.608 1258.02 186.034C1257.44 185.46 1257.12 184.682 1257.12 183.87V138.13C1257.12 137.728 1257.2 137.33 1257.35 136.959C1257.51 136.588 1257.73 136.25 1258.02 135.966C1258.59 135.392 1259.37 135.07 1260.18 135.07H1281.39C1281.79 135.069 1282.19 135.147 1282.56 135.3C1282.94 135.453 1283.28 135.679 1283.56 135.963C1283.85 136.247 1284.07 136.585 1284.23 136.957C1284.38 137.329 1284.46 137.727 1284.46 138.13V149" stroke="#0A81D1" stroke-width="2" stroke-miterlimit="10"/>
<path d="M1265.79 139.34H1271.88M1269.27 182.47H1272.31M1275.66 139.34H1275.78" stroke="#0A81D1" stroke-width="2" stroke-miterlimit="10" stroke-linecap="round"/>
<path d="M1257.12 178.36H1284.46M1257.12 143.75H1284.46M1266.88 154.43H1296.88M1269.88 149H1294.74C1295.31 149 1295.85 149.225 1296.25 149.627C1296.65 150.028 1296.88 150.573 1296.88 151.14V167.56C1296.88 168.128 1296.65 168.672 1296.25 169.073C1295.85 169.475 1295.31 169.7 1294.74 169.7H1269C1268.43 169.7 1267.89 169.475 1267.49 169.073C1267.09 168.672 1266.86 168.128 1266.86 167.56V152C1266.86 151.604 1266.94 151.213 1267.09 150.847C1267.24 150.482 1267.47 150.15 1267.75 149.872C1268.03 149.593 1268.36 149.372 1268.73 149.223C1269.09 149.073 1269.48 148.997 1269.88 149Z" stroke="#0A81D1" stroke-width="2" stroke-miterlimit="10"/>
<path d="M1290.27 161C1289.75 161.002 1289.25 161.178 1288.84 161.5C1288.44 161.177 1287.94 161 1287.42 161C1287.1 160.979 1286.78 161.024 1286.48 161.132C1286.18 161.24 1285.9 161.408 1285.67 161.627C1285.43 161.846 1285.25 162.111 1285.12 162.404C1284.99 162.698 1284.93 163.015 1284.93 163.335C1284.93 163.655 1284.99 163.972 1285.12 164.266C1285.25 164.56 1285.43 164.824 1285.67 165.043C1285.9 165.262 1286.18 165.43 1286.48 165.538C1286.78 165.646 1287.1 165.691 1287.42 165.67C1287.94 165.67 1288.44 165.494 1288.84 165.17C1289.13 165.398 1289.48 165.552 1289.84 165.62C1290.2 165.689 1290.58 165.669 1290.94 165.563C1291.29 165.457 1291.62 165.268 1291.88 165.011C1292.15 164.754 1292.35 164.437 1292.47 164.086C1292.59 163.735 1292.63 163.361 1292.57 162.994C1292.52 162.627 1292.38 162.278 1292.17 161.976C1291.95 161.674 1291.67 161.428 1291.34 161.259C1291.01 161.089 1290.64 161 1290.27 161Z" stroke="#0A81D1" stroke-width="2" stroke-miterlimit="10"/>
<path d="M1218.94 247V234.4H1223.1C1223.77 234.4 1224.38 234.565 1224.92 234.895C1225.47 235.225 1225.9 235.672 1226.22 236.236C1226.54 236.794 1226.7 237.418 1226.7 238.108C1226.7 238.81 1226.54 239.443 1226.21 240.007C1225.89 240.565 1225.45 241.009 1224.9 241.339C1224.35 241.663 1223.75 241.825 1223.1 241.825H1220.45V247H1218.94ZM1220.45 240.313H1222.96C1223.37 240.313 1223.74 240.214 1224.08 240.016C1224.42 239.812 1224.69 239.539 1224.89 239.197C1225.09 238.849 1225.19 238.459 1225.19 238.027C1225.19 237.589 1225.09 237.199 1224.89 236.857C1224.69 236.509 1224.42 236.236 1224.08 236.038C1223.74 235.834 1223.37 235.732 1222.96 235.732H1220.45V240.313ZM1234.98 238H1236.49V247H1234.98L1234.92 245.479C1234.64 246.001 1234.25 246.424 1233.75 246.748C1233.26 247.072 1232.67 247.234 1231.98 247.234C1231.32 247.234 1230.71 247.111 1230.13 246.865C1229.55 246.613 1229.04 246.268 1228.6 245.83C1228.16 245.386 1227.82 244.876 1227.57 244.3C1227.33 243.724 1227.2 243.103 1227.2 242.437C1227.2 241.795 1227.32 241.189 1227.56 240.619C1227.8 240.049 1228.14 239.551 1228.56 239.125C1229 238.693 1229.49 238.357 1230.06 238.117C1230.62 237.871 1231.23 237.748 1231.88 237.748C1232.58 237.748 1233.2 237.916 1233.74 238.252C1234.27 238.582 1234.7 239.011 1235.03 239.539L1234.98 238ZM1231.96 245.767C1232.55 245.767 1233.06 245.623 1233.5 245.335C1233.93 245.041 1234.27 244.645 1234.5 244.147C1234.74 243.649 1234.86 243.1 1234.86 242.5C1234.86 241.888 1234.74 241.336 1234.5 240.844C1234.26 240.346 1233.92 239.953 1233.49 239.665C1233.05 239.371 1232.54 239.224 1231.96 239.224C1231.36 239.224 1230.82 239.371 1230.34 239.665C1229.85 239.959 1229.46 240.355 1229.18 240.853C1228.89 241.345 1228.75 241.894 1228.75 242.5C1228.75 243.106 1228.9 243.658 1229.19 244.156C1229.49 244.648 1229.88 245.041 1230.36 245.335C1230.85 245.623 1231.38 245.767 1231.96 245.767ZM1244.17 238H1245.78L1240.85 251.5H1239.25L1240.88 247L1237.65 238H1239.31L1241.64 244.921L1244.17 238ZM1253.94 235.777V238H1256.58V239.512H1253.94V247H1252.43V239.512H1251.27V238H1252.43V235.777C1252.43 235.315 1252.54 234.898 1252.76 234.526C1252.99 234.148 1253.29 233.848 1253.67 233.626C1254.05 233.398 1254.47 233.284 1254.93 233.284C1255.27 233.284 1255.59 233.353 1255.91 233.491C1256.23 233.623 1256.51 233.821 1256.76 234.085L1255.68 235.156C1255.59 235.042 1255.48 234.955 1255.34 234.895C1255.21 234.829 1255.07 234.796 1254.93 234.796C1254.66 234.796 1254.43 234.892 1254.23 235.084C1254.04 235.276 1253.94 235.507 1253.94 235.777ZM1258.26 247V238H1259.77V239.125C1260.09 238.705 1260.49 238.372 1260.98 238.126C1261.46 237.874 1261.99 237.748 1262.56 237.748C1262.91 237.748 1263.25 237.793 1263.57 237.883L1262.96 239.395C1262.71 239.317 1262.47 239.278 1262.24 239.278C1261.79 239.278 1261.37 239.389 1261 239.611C1260.62 239.827 1260.33 240.121 1260.1 240.493C1259.88 240.865 1259.77 241.279 1259.77 241.735V247H1258.26ZM1268.18 247.234C1267.35 247.234 1266.59 247.021 1265.91 246.595C1265.23 246.169 1264.69 245.599 1264.28 244.885C1263.88 244.165 1263.68 243.37 1263.68 242.5C1263.68 241.84 1263.8 241.225 1264.03 240.655C1264.26 240.079 1264.58 239.575 1264.99 239.143C1265.41 238.705 1265.89 238.363 1266.43 238.117C1266.98 237.871 1267.56 237.748 1268.18 237.748C1269.01 237.748 1269.76 237.961 1270.44 238.387C1271.12 238.813 1271.66 239.386 1272.07 240.106C1272.47 240.826 1272.68 241.624 1272.68 242.5C1272.68 243.154 1272.56 243.766 1272.33 244.336C1272.09 244.906 1271.77 245.41 1271.36 245.848C1270.95 246.28 1270.47 246.619 1269.92 246.865C1269.38 247.111 1268.8 247.234 1268.18 247.234ZM1268.18 245.722C1268.74 245.722 1269.25 245.575 1269.7 245.281C1270.16 244.981 1270.51 244.588 1270.77 244.102C1271.03 243.61 1271.17 243.076 1271.17 242.5C1271.17 241.912 1271.03 241.372 1270.76 240.88C1270.5 240.388 1270.14 239.995 1269.69 239.701C1269.24 239.407 1268.74 239.26 1268.18 239.26C1267.61 239.26 1267.11 239.41 1266.66 239.71C1266.21 240.004 1265.85 240.397 1265.59 240.889C1265.32 241.381 1265.19 241.918 1265.19 242.5C1265.19 243.1 1265.33 243.646 1265.6 244.138C1265.87 244.624 1266.23 245.011 1266.68 245.299C1267.14 245.581 1267.64 245.722 1268.18 245.722ZM1274.17 247V238H1275.68V239.125C1276 238.705 1276.4 238.372 1276.88 238.126C1277.36 237.874 1277.89 237.748 1278.46 237.748C1279.13 237.748 1279.74 237.91 1280.29 238.234C1280.84 238.558 1281.27 238.987 1281.59 239.521C1281.91 238.987 1282.34 238.558 1282.89 238.234C1283.44 237.91 1284.05 237.748 1284.71 237.748C1285.38 237.748 1286 237.913 1286.55 238.243C1287.1 238.567 1287.54 239.005 1287.87 239.557C1288.2 240.109 1288.36 240.724 1288.36 241.402V247H1286.85V241.762C1286.85 241.318 1286.74 240.907 1286.52 240.529C1286.31 240.151 1286.02 239.848 1285.65 239.62C1285.29 239.392 1284.88 239.278 1284.44 239.278C1283.99 239.278 1283.59 239.386 1283.22 239.602C1282.86 239.812 1282.56 240.106 1282.35 240.484C1282.13 240.856 1282.02 241.282 1282.02 241.762V247H1280.51V241.762C1280.51 241.282 1280.4 240.856 1280.19 240.484C1279.97 240.106 1279.68 239.812 1279.31 239.602C1278.94 239.386 1278.54 239.278 1278.09 239.278C1277.65 239.278 1277.25 239.392 1276.88 239.62C1276.51 239.848 1276.22 240.151 1276 240.529C1275.79 240.907 1275.68 241.318 1275.68 241.762V247H1274.17ZM1300.65 238H1302.26L1297.33 251.5H1295.73L1297.36 247L1294.13 238H1295.78L1298.12 244.921L1300.65 238ZM1307.38 247.234C1306.55 247.234 1305.79 247.021 1305.11 246.595C1304.43 246.169 1303.89 245.599 1303.48 244.885C1303.08 244.165 1302.88 243.37 1302.88 242.5C1302.88 241.84 1302.99 241.225 1303.23 240.655C1303.46 240.079 1303.78 239.575 1304.19 239.143C1304.61 238.705 1305.09 238.363 1305.63 238.117C1306.18 237.871 1306.76 237.748 1307.38 237.748C1308.21 237.748 1308.96 237.961 1309.64 238.387C1310.32 238.813 1310.86 239.386 1311.27 240.106C1311.67 240.826 1311.88 241.624 1311.88 242.5C1311.88 243.154 1311.76 243.766 1311.53 244.336C1311.29 244.906 1310.97 245.41 1310.55 245.848C1310.15 246.28 1309.67 246.619 1309.12 246.865C1308.58 247.111 1308 247.234 1307.38 247.234ZM1307.38 245.722C1307.94 245.722 1308.45 245.575 1308.9 245.281C1309.35 244.981 1309.71 244.588 1309.97 244.102C1310.23 243.61 1310.37 243.076 1310.37 242.5C1310.37 241.912 1310.23 241.372 1309.96 240.88C1309.7 240.388 1309.34 239.995 1308.89 239.701C1308.44 239.407 1307.94 239.26 1307.38 239.26C1306.81 239.26 1306.31 239.41 1305.86 239.71C1305.41 240.004 1305.05 240.397 1304.79 240.889C1304.52 241.381 1304.39 241.918 1304.39 242.5C1304.39 243.1 1304.52 243.646 1304.79 244.138C1305.06 244.624 1305.43 245.011 1305.88 245.299C1306.34 245.581 1306.84 245.722 1307.38 245.722ZM1312.88 243.58V238H1314.4V243.247C1314.4 243.703 1314.51 244.117 1314.73 244.489C1314.95 244.861 1315.25 245.158 1315.62 245.38C1316 245.596 1316.41 245.704 1316.86 245.704C1317.32 245.704 1317.73 245.596 1318.1 245.38C1318.47 245.158 1318.76 244.861 1318.99 244.489C1319.21 244.117 1319.32 243.703 1319.32 243.247V238H1320.83L1320.84 247H1319.33L1319.32 245.857C1319 246.277 1318.6 246.613 1318.11 246.865C1317.63 247.111 1317.1 247.234 1316.54 247.234C1315.87 247.234 1315.25 247.072 1314.69 246.748C1314.14 246.418 1313.7 245.977 1313.37 245.425C1313.05 244.873 1312.88 244.258 1312.88 243.58ZM1322.65 247V238H1324.16V239.125C1324.48 238.705 1324.88 238.372 1325.37 238.126C1325.85 237.874 1326.38 237.748 1326.95 237.748C1327.3 237.748 1327.63 237.793 1327.96 237.883L1327.35 239.395C1327.1 239.317 1326.86 239.278 1326.63 239.278C1326.18 239.278 1325.76 239.389 1325.38 239.611C1325.01 239.827 1324.72 240.121 1324.49 240.493C1324.27 240.865 1324.16 241.279 1324.16 241.735V247H1322.65ZM1253.92 271H1252.39L1249.38 262H1250.85L1253.18 268.867L1255.47 262H1257.03L1259.33 268.867L1261.63 262H1263.12L1260.11 271H1258.57L1256.24 264.07L1253.92 271ZM1271.46 262H1272.98V271H1271.46L1271.4 269.479C1271.12 270.001 1270.73 270.424 1270.23 270.748C1269.74 271.072 1269.15 271.234 1268.47 271.234C1267.81 271.234 1267.19 271.111 1266.61 270.865C1266.04 270.613 1265.53 270.268 1265.08 269.83C1264.64 269.386 1264.3 268.876 1264.06 268.3C1263.81 267.724 1263.69 267.103 1263.69 266.437C1263.69 265.795 1263.81 265.189 1264.05 264.619C1264.29 264.049 1264.62 263.551 1265.05 263.125C1265.48 262.693 1265.98 262.357 1266.54 262.117C1267.1 261.871 1267.71 261.748 1268.36 261.748C1269.07 261.748 1269.69 261.916 1270.22 262.252C1270.76 262.582 1271.19 263.011 1271.52 263.539L1271.46 262ZM1268.44 269.767C1269.03 269.767 1269.55 269.623 1269.98 269.335C1270.42 269.041 1270.75 268.645 1270.99 268.147C1271.23 267.649 1271.35 267.1 1271.35 266.5C1271.35 265.888 1271.23 265.336 1270.99 264.844C1270.75 264.346 1270.41 263.953 1269.97 263.665C1269.54 263.371 1269.03 263.224 1268.44 263.224C1267.85 263.224 1267.31 263.371 1266.82 263.665C1266.33 263.959 1265.95 264.355 1265.66 264.853C1265.38 265.345 1265.24 265.894 1265.24 266.5C1265.24 267.106 1265.38 267.658 1265.68 268.156C1265.97 268.648 1266.36 269.041 1266.85 269.335C1267.33 269.623 1267.86 269.767 1268.44 269.767ZM1274.88 271V257.5H1276.39V271H1274.88ZM1278.55 271V257.5H1280.07V271H1278.55ZM1286.1 271.234C1285.27 271.234 1284.52 271.021 1283.83 270.595C1283.15 270.169 1282.61 269.599 1282.2 268.885C1281.8 268.165 1281.6 267.37 1281.6 266.5C1281.6 265.84 1281.72 265.225 1281.95 264.655C1282.18 264.079 1282.51 263.575 1282.91 263.143C1283.33 262.705 1283.81 262.363 1284.35 262.117C1284.9 261.871 1285.48 261.748 1286.1 261.748C1286.78 261.748 1287.4 261.886 1287.96 262.162C1288.53 262.432 1289.02 262.81 1289.42 263.296C1289.83 263.782 1290.13 264.346 1290.33 264.988C1290.53 265.63 1290.61 266.317 1290.55 267.049H1283.21C1283.28 267.559 1283.45 268.015 1283.71 268.417C1283.98 268.813 1284.31 269.128 1284.72 269.362C1285.14 269.596 1285.6 269.716 1286.1 269.722C1286.64 269.722 1287.13 269.584 1287.57 269.308C1288 269.026 1288.36 268.642 1288.63 268.156L1290.17 268.516C1289.81 269.314 1289.26 269.968 1288.54 270.478C1287.81 270.982 1287 271.234 1286.1 271.234ZM1283.17 265.861H1289.03C1288.99 265.357 1288.82 264.898 1288.55 264.484C1288.27 264.064 1287.92 263.728 1287.49 263.476C1287.07 263.224 1286.6 263.098 1286.1 263.098C1285.6 263.098 1285.13 263.221 1284.71 263.467C1284.29 263.713 1283.95 264.046 1283.67 264.466C1283.4 264.88 1283.23 265.345 1283.17 265.861ZM1296.63 263.512H1294.58L1294.58 271H1293.06L1293.07 263.512H1291.52V262H1293.07L1293.06 259.174H1294.58L1294.58 262H1296.63V263.512Z" fill="black"/>
</g>
<defs>
<clipPath id="clip0_1047_1468">
<rect width="1440" height="362" fill="white"/>
</clipPath>
<clipPath id="clip1_1047_1468">
<rect width="56" height="56" fill="white" transform="translate(745 129)"/>
</clipPath>
</defs>
</svg>
