<svg width="1440" height="1215" viewBox="0 0 1440 1215" fill="none" xmlns="http://www.w3.org/2000/svg">
<path opacity="0.5" d="M-1181.5 205C-1414 314.007 -990.037 -80.566 -1147.5 71.5001C-1110.55 12.7994 -1202.31 124.414 -1147.5 71.5001C-1232.34 205.861 -637.418 123.383 -1181.5 149C-1731.42 25.3184 -1265.5 775.813 -1265.5 949.257C-1250.03 1065.29 -645.332 1205.86 -560.082 1206.29L933.454 1214.89C1100.21 1215.83 1285.49 1212.42 1405.38 1140.4C1488.01 1090.81 1521.58 1018.39 1550.07 949.257C1585.07 864.315 1604.52 731.466 1550.07 650.563C1487.86 558 1394.33 533.615 1296.61 453.743C1138.02 324.338 1090.15 141.143 888.186 37.8365C793.903 -10.3789 669.493 -29.2869 548.266 -38.7409C319.718 -56.5889 60.9412 -448.302 -163.5 -453C-355.35 -457.011 -1022.34 130.371 -1181.5 205Z" fill="#0A81D1"/>
</svg>
