<svg width="64" height="64" viewBox="0 0 64 64" fill="none" xmlns="http://www.w3.org/2000/svg">
<path d="M39.4601 40.7001V54.8701C39.4601 55.2728 39.3806 55.6715 39.2262 56.0434C39.0718 56.4153 38.8455 56.7531 38.5603 57.0374C38.2751 57.3217 37.9366 57.5468 37.5642 57.7C37.1918 57.8532 36.7928 57.9314 36.3901 57.9301H15.1801C14.3686 57.9301 13.5902 57.6077 13.0164 57.0338C12.4425 56.46 12.1201 55.6816 12.1201 54.8701V9.13008C12.1201 8.72824 12.1993 8.33033 12.353 7.95907C12.5068 7.58782 12.7322 7.25049 13.0164 6.96634C13.5902 6.39248 14.3686 6.07008 15.1801 6.07008H36.3901C36.7928 6.06877 37.1918 6.14695 37.5642 6.30014C37.9366 6.45333 38.2751 6.67852 38.5603 6.96279C38.8455 7.24707 39.0718 7.58485 39.2262 7.95676C39.3806 8.32867 39.4601 8.7274 39.4601 9.13008V20.0001" stroke="#0A81D1" stroke-width="2" stroke-miterlimit="10"/>
<path d="M20.79 10.3401H26.88M24.27 53.47H27.31M30.6599 10.3401H30.7799" stroke="#0A81D1" stroke-width="2" stroke-miterlimit="10" stroke-linecap="round"/>
<path d="M12.1201 49.3601H39.4601M12.1201 14.75H39.4601M21.8799 25.4299H51.8799M24.8801 20.0001H49.7401C50.3077 20.0001 50.852 20.2255 51.2533 20.6269C51.6546 21.0282 51.8801 21.5725 51.8801 22.1401V38.5601C51.8801 39.1276 51.6546 39.6719 51.2533 40.0733C50.852 40.4746 50.3077 40.7001 49.7401 40.7001H24.0001C23.4325 40.7001 22.8882 40.4746 22.4869 40.0733C22.0856 39.6719 21.8601 39.1276 21.8601 38.5601V23.0001C21.8601 22.6044 21.9384 22.2127 22.0904 21.8474C22.2424 21.4821 22.4651 21.1505 22.7458 20.8716C23.0265 20.5928 23.3596 20.3722 23.7259 20.2227C24.0922 20.0731 24.4845 19.9974 24.8801 20.0001Z" stroke="#0A81D1" stroke-width="2" stroke-miterlimit="10"/>
<path d="M45.2699 32.0001C44.7507 32.0021 44.2472 32.1781 43.8399 32.5001C43.4372 32.1768 42.9363 32.0004 42.4199 32.0001C42.1004 31.9792 41.78 32.0241 41.4786 32.1319C41.1771 32.2398 40.901 32.4084 40.6673 32.6273C40.4337 32.8462 40.2474 33.1107 40.12 33.4044C39.9927 33.6982 39.927 34.0149 39.927 34.3351C39.927 34.6553 39.9927 34.9721 40.12 35.2658C40.2474 35.5596 40.4337 35.8241 40.6673 36.0429C40.901 36.2618 41.1771 36.4304 41.4786 36.5383C41.78 36.6462 42.1004 36.691 42.4199 36.6701C42.9363 36.6698 43.4372 36.4935 43.8399 36.1701C44.1327 36.3976 44.4757 36.5519 44.8402 36.6203C45.2047 36.6886 45.5802 36.6689 45.9356 36.5628C46.2909 36.4568 46.6158 36.2675 46.8833 36.0106C47.1508 35.7537 47.353 35.4367 47.4733 35.0859C47.5936 34.7351 47.6285 34.3607 47.5749 33.9938C47.5214 33.6268 47.381 33.2779 47.1655 32.9761C46.95 32.6743 46.6656 32.4283 46.3359 32.2586C46.0062 32.0888 45.6407 32.0002 45.2699 32.0001Z" stroke="#0A81D1" stroke-width="2" stroke-miterlimit="10"/>
</svg>
