<svg width="1440" height="1215" viewBox="0 0 1440 1215" fill="none" xmlns="http://www.w3.org/2000/svg">
<path opacity="0.5" d="M-257.5 949.259C-489.999 1058.27 -239.141 639.934 -396.604 792C-451.419 844.914 -359.651 733.299 -396.604 792C-481.443 926.361 -15.9999 650.565 -560.082 676.182C-121.208 1033 -15.9999 897.555 -15.9999 1071C-0.530273 1187.03 -645.332 1205.86 -560.082 1206.29L933.454 1214.89C1100.21 1215.83 1285.49 1212.42 1405.38 1140.4C1488.01 1090.81 1521.58 1018.39 1550.07 949.259C1585.07 864.316 1604.52 731.468 1550.07 650.565C1487.86 558.001 1394.33 533.616 1296.61 453.744C1138.02 324.339 1090.15 141.143 888.186 37.8365C793.903 -10.3789 669.493 -29.2869 548.265 -38.7409C319.718 -56.5888 103.233 -22.8983 -121.208 -27.5966C-313.059 -31.6074 -98.3435 874.63 -257.5 949.259Z" fill="#0A81D1"/>
</svg>
